<mxfile host="app.diagrams.net" modified="2020-09-26T17:04:01.749Z" agent="5.0 (Windows NT 10.0; Win64; x64) AppleWebKit/537.36 (KHTML, like Gecko) Chrome/81.0.4044.138 Safari/537.36" etag="yujYZi0p6duq0vh2XDhY" version="13.7.2" type="github">
  <diagram id="C5RBs43oDa-KdzZeNtuy" name="Page-1">
    <mxGraphModel dx="1824" dy="926" grid="1" gridSize="10" guides="1" tooltips="1" connect="1" arrows="1" fold="1" page="1" pageScale="1" pageWidth="827" pageHeight="1169" math="0" shadow="0">
      <root>
        <mxCell id="WIyWlLk6GJQsqaUBKTNV-0" />
        <mxCell id="WIyWlLk6GJQsqaUBKTNV-1" parent="WIyWlLk6GJQsqaUBKTNV-0" />
        <mxCell id="WIyWlLk6GJQsqaUBKTNV-2" value="" style="rounded=0;html=1;jettySize=auto;orthogonalLoop=1;fontSize=11;endArrow=block;endFill=0;endSize=8;strokeWidth=1;shadow=0;labelBackgroundColor=none;edgeStyle=orthogonalEdgeStyle;" parent="WIyWlLk6GJQsqaUBKTNV-1" source="WIyWlLk6GJQsqaUBKTNV-3" target="WIyWlLk6GJQsqaUBKTNV-6" edge="1">
          <mxGeometry relative="1" as="geometry" />
        </mxCell>
        <mxCell id="WIyWlLk6GJQsqaUBKTNV-3" value="Lamp doesn&#39;t work" style="rounded=1;whiteSpace=wrap;html=1;fontSize=12;glass=0;strokeWidth=1;shadow=0;" parent="WIyWlLk6GJQsqaUBKTNV-1" vertex="1">
          <mxGeometry x="160" y="80" width="120" height="40" as="geometry" />
        </mxCell>
        <mxCell id="WIyWlLk6GJQsqaUBKTNV-4" value="Yes" style="rounded=0;html=1;jettySize=auto;orthogonalLoop=1;fontSize=11;endArrow=block;endFill=0;endSize=8;strokeWidth=1;shadow=0;labelBackgroundColor=none;edgeStyle=orthogonalEdgeStyle;" parent="WIyWlLk6GJQsqaUBKTNV-1" source="WIyWlLk6GJQsqaUBKTNV-6" target="WIyWlLk6GJQsqaUBKTNV-10" edge="1">
          <mxGeometry y="20" relative="1" as="geometry">
            <mxPoint as="offset" />
          </mxGeometry>
        </mxCell>
        <mxCell id="WIyWlLk6GJQsqaUBKTNV-5" value="No" style="edgeStyle=orthogonalEdgeStyle;rounded=0;html=1;jettySize=auto;orthogonalLoop=1;fontSize=11;endArrow=block;endFill=0;endSize=8;strokeWidth=1;shadow=0;labelBackgroundColor=none;" parent="WIyWlLk6GJQsqaUBKTNV-1" source="WIyWlLk6GJQsqaUBKTNV-6" target="WIyWlLk6GJQsqaUBKTNV-7" edge="1">
          <mxGeometry y="10" relative="1" as="geometry">
            <mxPoint as="offset" />
          </mxGeometry>
        </mxCell>
        <mxCell id="WIyWlLk6GJQsqaUBKTNV-6" value="Lamp&lt;br&gt;plugged in?" style="rhombus;whiteSpace=wrap;html=1;shadow=0;fontFamily=Helvetica;fontSize=12;align=center;strokeWidth=1;spacing=6;spacingTop=-4;" parent="WIyWlLk6GJQsqaUBKTNV-1" vertex="1">
          <mxGeometry x="170" y="170" width="100" height="80" as="geometry" />
        </mxCell>
        <mxCell id="WIyWlLk6GJQsqaUBKTNV-7" value="Plug in lamp" style="rounded=1;whiteSpace=wrap;html=1;fontSize=12;glass=0;strokeWidth=1;shadow=0;" parent="WIyWlLk6GJQsqaUBKTNV-1" vertex="1">
          <mxGeometry x="330" y="190" width="120" height="40" as="geometry" />
        </mxCell>
        <mxCell id="WIyWlLk6GJQsqaUBKTNV-8" value="No" style="rounded=0;html=1;jettySize=auto;orthogonalLoop=1;fontSize=11;endArrow=block;endFill=0;endSize=8;strokeWidth=1;shadow=0;labelBackgroundColor=none;edgeStyle=orthogonalEdgeStyle;" parent="WIyWlLk6GJQsqaUBKTNV-1" source="WIyWlLk6GJQsqaUBKTNV-10" target="WIyWlLk6GJQsqaUBKTNV-11" edge="1">
          <mxGeometry x="0.3333" y="20" relative="1" as="geometry">
            <mxPoint as="offset" />
          </mxGeometry>
        </mxCell>
        <mxCell id="WIyWlLk6GJQsqaUBKTNV-9" value="Yes" style="edgeStyle=orthogonalEdgeStyle;rounded=0;html=1;jettySize=auto;orthogonalLoop=1;fontSize=11;endArrow=block;endFill=0;endSize=8;strokeWidth=1;shadow=0;labelBackgroundColor=none;" parent="WIyWlLk6GJQsqaUBKTNV-1" source="WIyWlLk6GJQsqaUBKTNV-10" target="WIyWlLk6GJQsqaUBKTNV-12" edge="1">
          <mxGeometry y="10" relative="1" as="geometry">
            <mxPoint as="offset" />
          </mxGeometry>
        </mxCell>
        <mxCell id="WIyWlLk6GJQsqaUBKTNV-10" value="Bulb&lt;br&gt;burned out?" style="rhombus;whiteSpace=wrap;html=1;shadow=0;fontFamily=Helvetica;fontSize=12;align=center;strokeWidth=1;spacing=6;spacingTop=-4;" parent="WIyWlLk6GJQsqaUBKTNV-1" vertex="1">
          <mxGeometry x="170" y="290" width="100" height="80" as="geometry" />
        </mxCell>
        <mxCell id="WIyWlLk6GJQsqaUBKTNV-11" value="Repair Lamp" style="rounded=1;whiteSpace=wrap;html=1;fontSize=12;glass=0;strokeWidth=1;shadow=0;" parent="WIyWlLk6GJQsqaUBKTNV-1" vertex="1">
          <mxGeometry x="160" y="430" width="120" height="40" as="geometry" />
        </mxCell>
        <mxCell id="WIyWlLk6GJQsqaUBKTNV-12" value="Replace Bulb" style="rounded=1;whiteSpace=wrap;html=1;fontSize=12;glass=0;strokeWidth=1;shadow=0;" parent="WIyWlLk6GJQsqaUBKTNV-1" vertex="1">
          <mxGeometry x="320" y="310" width="120" height="40" as="geometry" />
        </mxCell>
        <mxCell id="vMoHs6_8hrxP0GS23HOi-0" value="" style="shape=image;verticalLabelPosition=bottom;labelBackgroundColor=#ffffff;verticalAlign=top;aspect=fixed;imageAspect=0;image=data:image/png,iVBORw0KGgoAAAANSUhEUgAAAF0AAAAoCAYAAACcnvaxAAAESUlEQVRoBe1aC47EIAj1XB7I83gaL+Nh2KDS+gF/7U4zk26yGdvKA5+AaKvg/fs4A+rjGl+F8JL+gBO8pL+kP8DAAyof9XTvLDj/wKj/U6W3YF1fwXOkOwPG/hrjkWxvDfSG9hDpDoy28JuUI/E4PgOSw0+T7owCpRSoG8hyRoORLOpH5vc8dQa04O5zpCMAku0taKWuERYwZC/4HlZHljowih/nBOkerMmEkbQL3u6tBvXzbh4nBLMD5+1j0p1tF4WJFZr3Aw9W84bw/b/7bnAwxkHHpN857jvS0532DLCQtEtB6QwopRun/SjpYeYZIwZjf+ZxICxLqztWCE42Jj0oF1JCAp3N0bECujiQncEvymCdjQXD7LhkeFxMW5wh6ZGoNkRQUfTc2Wom5vPZkpOw8zIVd7BGp9JVXQx9jilyIiQq++cWQ068vZdIr/L6gHReKIInEoWyaNaAtl9+J+rX1oEzBiydGfhk17+kqtVx5fbWbR6rT/qNqSXs0tB7qlmvzSyuk36Fu7tq+0qbtUsLXaEsXZC33wK8Qfp9qSXkouU82SO294zjcvYepbVbOAcivUzPHU/vpRYK74VFcdmDZvSXg5klVu7HkyT3Hz3h8WTSe6mFwn7FHVZJT/1ZFTv6R/yE572JngKoOi2S3kstW6FNpE/mdLmmp4GUUUZpYb/SwMNB3Mzw5fEePtlaRqTg6Z0Z9zbWnkzVEgwTSe1gVv4BlAsZrO6Ec0cWDbZ8o3Q0D75avGEZn0gvHYQnncIXiSXF3oWDL2N0ccQ7OrA/h7hAehYVpX7ULdfnzvbP6MlbuWqorK7wkK/FGuGfY6XWNOnYUYMmckOZp8FYF186YI1MGxRNb0gInA/NaAL1KWedzCt+KcxJT9iooE2u9b5D0IEdvCdzeMKJ6QNxm8XChcM4nFTNEI6TMsI/TDkaacxVxLaejl5WdTowuo04WcK5fZCM4TsmfbZfYQ6+/nMpmrLdZEsuSjkwDekFWnuxhE/iyZ5KV0M6DnhrMZqYrBje5aJC5p2/C2noFAo71vAyKrx77UWEP/tm8qMm7ojn8DOklCYrzquPjVJY150yGLGJhA4nSzCiAE19hliFUPRcj/Z3ohTPbjBF0DJVQHQv5vAbiMBn62SZpy/k3AYdq62Zg6+oQyaUbJAXS0Z1LPU0rjtYWbWDZGVWbobJXMeXqrmM9BjWMiE9K1HWgHPurHaE7sEQJpRi6ilP93pem8Pji25aS+YmP5cet3fxpVSdkT5WLvZIYWSO+k7sGRcxpsbvSfSflZ9zHJOKVdagmunj0tNd/OSIBJP93kN6BjjTRGIYZ58RbfvghOdgtCawZV8rPryzi49fUOR2ZYoeIT2UbJ2PcTL7vrSJa5NcGj9Eejzq/eXP6gQnD070HOmo/mc/IO0Xpc+S/qXJ46rZL+lXGdyQf0nfIO2qyEv6VQY35F/SN0i7KvIHs9Gr2VoiwCYAAAAASUVORK5CYII=;" parent="WIyWlLk6GJQsqaUBKTNV-1" vertex="1">
          <mxGeometry x="490" y="180" width="69.75" height="30" as="geometry" />
        </mxCell>
        <mxCell id="i71_wzklfZfTckoqjkvt-0" value="" style="shape=image;verticalLabelPosition=bottom;labelBackgroundColor=#ffffff;verticalAlign=top;aspect=fixed;imageAspect=0;image=data:image/png,iVBORw0KGgoAAAANSUhEUgAAAv4AAAE7CAYAAAClqIUjAAAgAElEQVR4Ae29C/Ad1X3neTOZmpnMFDtTm52qqdmpSjJJKqlZO0s0A2uTzbqysfMse0mMnVj24DHBBMdxEsxAYsdoY0PsyINBJsiOzUNCGIOMEA/xfgj+gABJ6MVDxggcYbF6/sVTYGQhflu/0+d3+tenz+nHvX3v7e77VdVffbv7vH/fPufzO326e0Bj+Lfn4Ku0ZcduWn77JvP3l9+4nc5Yegu9f9FV9GtnXIo/tAE0AA1AA9AANAANQAPQwExr4L2fXWH4mBlZmPmBx3bSjufnx0DnSZKDplJ+cuc+uuTmjfTRL62aaSPCsYFjBw1AA9AANAANQAPQADQwigY+dO5KuvDadbT+u7uaQnWTzkjg/+rrh2npDY/kZvJ/9zMr6MxL7qKvrtlk/tZs2UW3P76bHt31Ku08RPhDG0AD0AA0AA1AA9AANAANzLQGtu193fAxM7Iw819dvpZOPCe7QuY3z1pGi6++n3hFzaj/hgL/w0fepKvu3kp8i0K8mQ98YSV96dpHTAUA93BuoAFoABqABqABaAAagAaggeE0cP+OeeMMfPTL1zvWZubmCfeDr7w+NP/XBv8b123PzPDzzP7DO1+caY8Noh5O1Gg3tBs0AA1AA9AANAANQAPFGuAVM+dceb9zAPgOAD8TwCtv6v6rDP48y3/uirUu01MvuAmz+7hFB4cPGoAGoAFoABqABqABaGACGuC7AH/2tdsdi3/8/OtrL/+pBP58S+GTS24yGf3GWcto5cPPwsATMDA84GIPGO2D9oEGoAFoABqABqCBWdMAPxPAS+x56Q+/MZNfsFP1Xyn48yuF+MliTpwfNmBvY9YaGPVFpwINQAPQADQADUAD0AA00BYNbJ8/TLz6hvmcl/7cs/nZSuxfCP4M/fIALz9cgLfyQPBtETzKAS1CA9AANAANQAPQwCxrYMdLbxK/BYjhn/9uW/90KfxHwZ+X98hMP68n4sRnuXFRd3Qu0AA0AA1AA9AANAANQANt0wC/ClRm/vkDukX/guDPD/LKmn6e6Qf0Q+RtEznKA01CA9AANAANQAPQADSQaOALV68z8M9r/ove9x8E/3Muv8tE5gcHsLwHFxUuKmgAGoAGoAFoABqABqCB9mqAJ+k/cdEtht/5bT88iR/6lwP/a+973ETit/fgQd72GhgXH2wDDXRPA3NfeRcdc8wxdPKN5WWXsO/8yjP1llne+MnKeXRSQ49fRO885hiq3S78Jra+tw3eNlfvWkF7ob16pgF+4Ffe9sMf+gr9y4A/ewd8i4DXCeGVneUDcycHzZ6JHDaATsehAYHuQkC3EFkHQCula69RCVsnfdMW44BbC9vstBzzqxfRXEk/suK0Y4zzccwx76LPP96wRgH+gLUS/Y2jT0CaDV/HsOHYruN7vrvPcDyzPL+kx/+XAX/+ChgH5FsFEDlEDg1AAzOrAQHd026P9oUJ3NYDW4H5Qodi1AFxHOBv0zTgX3bHQtqOnQSAf1Q/M3ttjapvxIemoIFSDchXfnnpvv/PgT+/xYffA8rgjyU+AD4MStDAbGvgGfr8rzK4fpJWBAeZ2+nkirPfuh27Dv7v/MpFSb1LHaJP0ufNsqZ6jpFuq+hvzPiXDvrRtgtqGX0d2gsa6JsGtu19nXjJfmjW34E/rwXiAGdechc6FXSO0AA0MPMaKIT04DIf6wyYme5kqYs/s6/TlN/JLHrAwYjO3ItTIstpvPXu0Xjl5YsOfqq+xXc6bB6n3U5J/cLgny4FkjoE6m+uQa/M7HBEwd8LG7ozEW0bgE/U9ugLZ74vhDa62T986dqE6/lBX/3PgD+v7ZcPdeEtPt00MC5M2A0aaFgDsmQlMLudg99AWAF7Df9yjGE/XbsvIO/BbxBSLdxm1tnzMQXYoXgVyxfVkAJ/eUA2LX/a7hr29e803VD5pf6qDhr6VV21w5DJv2r9Qm0DsAXYQgPQQA81wG/5+d3PrDCT+vr1ngb8+WX/PNvP7+xPO+i0M8cxtAU0AA3MngZqAqkC1KStbHx1XMA/A6084ISANHAs53CEBqtYPFWOWPmiNrZpJuWWdvEclUPZ+obAP15+6xAoJysWVuBft6E5VqV+gbaJ1jnUtjgGRoAGoIEOaUDW+l9191Y36W/AX5b58Je/0AkC8KABaAAasBrIAG/2WDqTn4dWab8EUlNAFvBP49o07Yy1htm8M5AFa8kjt83BbfXy5dKSAc5rh2A9vHzz4F9c/mxbFYTNtVWN+nlljNZX6o0tmAAagAY6rAF+QydP7J+x9JYs+H/o3JXmBL8CCB0hoA8agAagAdGAhUo1m5wFVHJrzuWNN/ltU+AfB9yMvXy4lWUw6tmDbBnT8mXS0YOdB/47D5W3Sx78i8uftKss9ykI64N/nfr5baPriN8Y/6EBaKBnGuD3+stDvq++ftjA/4Df8cnewInnXAWD98zg0UEc9YTWoYHKGigFUgFPtUwldu0FZ8rZFj7M8rEcpBbAsLanH69G+WLllrLoOxKZdgmUvxHwVw6XK5ufV536+W2j2w2/K18TzhZoM7QZNNB6DfzZ1243nH/b+qcT8OcfDP68DggXs8zyYQstQAPQgNWAhUUDvUFwrAjkh8i+6Sbw5V4fZnkwzeVl8wnBsB58Y/EqOCZRm+s2kLzUsYwTYM9HwT9S/iQNufvQzFKfXH1ybYPrPNdGYl9swUTQQC80sGztdsP58iXfgXy0C+v7MQBgAIAGoIGQBlLg/rz5Iq3AqYS1kBp957+EGxX8iUKAnbNZDm6rly+Xlgz8CvLTMJKufSWn51jkwb+o/HnnKVbX5HiFtyJJ2fU21zapbdJ64RjaAhqABvqjgdUbdhrwP3fF2mTG/8Jr15kD37r/6V54NhBrf8QKW8KWbdGALNExa+M9wDVllOUm3my2iafCSzrDPdybLgk6JpNPAuAuzRDcVixftL2D4J86MtwuLn8L2iHwlyVNofLnPpYmZVbtZ6D/V99F78y8DjXWLrZ8Kn7+LgqusajNtcOE3+AjaKCzGuCP8uoHfAd/+Y1k7c+aLbs6Wyl0XBi8oAFoYKwaEAjV78vPDYR21lo/RKuhc+SlPmLjfD567X0cbvPxjvHKF23DCPiHHvKVNILgb9rMu1PA7RUrh2v35K5CUs+kHpk6m3Qr1C/kFOXsKO2MrdgSW2gBGuiuBvgrvgz+/CIf/jf46JdWmQPsEcCw3TUsbAfbQQPQADQADUAD0AA0AA34GmDw/82zliXgL1/s5Vf++AGxD/FAA9AANAANQAPQADQADUAD3dWAfMHXzPizF8B/MGh3DQrbwXbQADQADUAD0AA0AA1AAyENCOsD/LG2Ew4fNAANQAPQADQADUAD0ECPNQDw77FxQ54ejmEGABqABqABaAAagAaggdnUAMAf4A/PHhqABqABaAAagAagAWhgBjQA8J8BI8Orn02vHnaH3aEBaAAagAb6pgHzOpoW/9f29gb4A/zh4UMD0AA0AA1AA9AANNAJDdRh/qNEtP7KFbTvgQcqRXt03+t093Ov0JE3OeZw/wD+uJA6cSG1XagoH2atoAFoABqABqABaKAOjq9Y8yBd/Ds/TvvOfBv9cN9LpVHv3v06/clD8/SFh3bTrdv30+EfvVkaxw/Qdo1ixh+OCRwTaAAagAagAWgAGoAGOqEBH7Rj+/ft2k/v+i+/Qw/+1YDeuGBAu5f+QywoHTlyhF5+6SW6bvs++shtz9P7vvMM/aeLttB7Ll5Pq+7fTnv3ztPLL79s/o4eLb4bAPDHhdSJC6ntQkX5MMsDDUAD0AA0AA1AA1F6tyd+SESrHt1G7/yzv6YP/9g/px8s+jF665sD2vm7v0JvvhWOzVC/eeMG+uLNm+mXv/Ek/e8Xb6P/5f99kH7sw1fQL3/oy/Tta26hzZs30dzcHG3atCmciD3ado1ixh+OCRwTaAAagAagAWgAGoAGOqGBIup+7Nmd9P985lz6uf/7t+mXf+rnafE/GdCBM36c6PJ/Rjt/9sfpwPpHiqLTkrnnaPCp2+hffGI1/fyfXEl/t+Ju2rlrr4vz6qFDtGnzZrcf+gHwx4XUiQup7UJF+TDLAw1AA9AANAANQAMh2P7Hlw7RDU/tpA+d+Rn6+X/xL+lt//6n6A//5b+iq//NgF755D8h+sZP0PwvDuipUz9EMum/Z88euvLKK+nFF190Sf7dt+bo3534d3TOJXfQ099/3h2XH7v2vUiXX/Ud2Q1u265RzPjDMYFjAg1AA9AANAANQAPQQCc0oGn7kf/vAC2a20YfueFB+r3lN9GHll5G7/nwR+n/+tf/M53z4wO656cG9Maf/FOii3+C3njPgL77s/+GXn3+ByaJF154ge666y46dOiQS3LD5qdo0+btbt/8eIvo9d1r6bWnv0W7136V1p1/Kr164/m0e9k59OKT+TsIAH9cSJ24kNouVJQPszzQADQADUAD0AA0oKl8xwuv0Ln3b6Pfu+p2et83rqb3nnc+vfs/H0efHAzokmMG9Pgv/xi9+akfJ/ofA3rr1H9K3/9nA9r5lfN0EuW/3yI6eNenaM+lC+jA//hlOvTff46eO+lf0UPHDuiZq87PxW+7RjHjD8cEjgk0AA1AA9AANAANQAOd0ECOtIno/md30Tce3Ej//eOn02mDAX39JwZ0/88N6IXfHtDRMwb0xs0fpreee5he+4cL6Hu/eTy9cWB/KJnwsbeIXrzqdNr/+bfR/Gd+iXaf9h/pex/4tzS3YEA7vn1xLg7AHxdSJy6ktgsV5QvP8iw6nmhwSvjcslPi51x7Pka0YEC0LHSdFp3T4auG03HwG/0CNAANQAPQwBAayJG2OvCj+Xl68Df+N3r6/xjQax8Y0JH/NqBDN59F+m38L8/dQ/vuvJ3eektW+6sEIj9f+MpC2vOxf0e7TvkpeuoD/5Y2/vpP0Jr/OKAnV/x9LoYbX4eo2yTiYsa/pYaZhPGRRxiYO9Uuq4kGEXBfOCBauLqkjk1AexNp4DoEAEAD0AA0AA1U0ECOtP0D372UaMWA3vragN648ZP05lGN/Ungo0eOENUA/51n/jpt/T8H9Oi7fozuXzCgW352QF//1wPacDnAH6KtINpOgSXq03pNBwG/wCHI6K8JaG8iDeis9TrL6Ab2gr2gAWhgShrwOT+//yq9tfMj9OaBq90bfPJh6h353uI/pYc+/F9o3ckn0NoPnUBr/uDX6LL3vZu23nZbLqG295WY8Z+ScNsuDJSvZKa8RboJLenhYwsWZ+vADgLfHcjcIRBot44Cn3N3CeSc1NXuSxrRcIeIgnlJOtgCGKABaAAagAaG1ECOtCdw4M2jR+lHbx6lI0ffMn/yIbDQYqG28xPAf0jhtd2wKF8WenvdHoHZfQbvRY+lbcDPAgiozy0mGhxPNMfaF5iX5wR0Wh74Z+4s6HP69yGiaF641jDQQwPQADQADUADU9UAwB8CnKoAew3kE9SWhu2dDO8C9lwGD8y5zZ1jYM85J0GH1b/9NHXddDj924Zxeek4+I3rDhqABqABaAAamLgGAP4Q3cRFB9hPZ+Kbagszi29n7XPLfCyMyxId2RrY90Fd76vfmbsE/jWjwomTIXnI1jkWflzs4/qDBqABaAAagAYmpgGAP8Q2MbE1BblIJ+A4CHzLVus6dEzO++f0vv49wow/7BWwl7Q/tuh/oAFoABqABiaoAYD/BBsbAAQAGqcGeLnPgsh7/TNLgTTQ6998Leh9/dsuD5LnBCRc6K5BNC9caxjcoAFoABqABqCBqWoA4A8BTlWA4wThmUvbPpjr4NzTNq+1zy298eBegN580CtyTtJw+fjhvLf6YJkPHN6Zuxa9aw/1xzUADUADbdEAwB8dNMAfGoAGoAFoABqABqABaGAGNADwnwEjt8XLRDkw4wENQAPQADQADUAD0MD0NADwB/jDw4cGoAFoABqABqABaAAamAENRMF//a7X6YZtB+nKR/bSZQ/sxh/aABpoUANXPLSXVm85SHPPvIqOdkwd7YbnX6Nv3LeTzv72NvP3++fPEf6Gb4Mzrtxi2nHJnc/SPU+/CN2OSbeYCZ3eTCjaHm0/CxoIgv+d33sZkNcg5MFxguNYpIFVm+fp+6+8BZBqCKQY+BlSAfnDQ36Vtvvo1x6GA9CQZmcBNjpRR/uiAnmBgd6aFx40bO+yjxvyN1lMGfQHGbkMgRcqVGrfYeM1XO9KZUWeY2OCHPifeuFtBvqXP7yH7t69j9a/doC20Tz+0AbQQIMa2PjDA3Tv/v20Yn3iFN2945WxXeSz1Mle9sBz9MElDxjo/69L7qMl37qTHrxtDW256yZ6df1qemPjdfgbsg24DfnvkmvuoD+++F7nWC295x/pmZeOzrx+uQ1WPLSLvnTz9+hTyze59qniRCFMc07q6ZdupEXXPWnu9j2+/3A9XUbA2AC4D98NgGkZ+JedL+3bI/UpjddA3ZBHe++e5MD/i6ufMODP0A/gh8MDDYxXA+te2W+uN15SN42OMvPO/Y539rykRwCKgf/gwwD9cTk67ERd8Z3bXXszbH33hSNT0fA0rhs/z7lnXyZuA9Efts2B/Cht+eGL1tHt2w9W12UMlGPHR+wzC8G+iTybSGPEOvrXCvan7xDkwP/ra39gQOTRw+MFHgAl2hcaSDQgy4CG6hCn3bFPO387KPFMPwMCz/Kvv+MmzOoPOatf11F44p4b6U+/tta0/bk3fLc6YPUIJhj6BU4/8vUb6MwbzqMv3PuntGTT++mirSfib8JtcN7c6fSXN59D/+2Slc4u127aU02bsf7MP273ZSlQ5lsl9nsqcm5wigI9fe4Uoij4e+kvXJx8nHEhf6BxQLSspDzyjRVOX8oR+tiiLBnKhOFr06a/aHEaf8FiVY8eXb9Djbsdr38O/AVCAGUAc2hgMhqQa26oDsgfACbdIU07/0NEvKafl/fUhVaEb27Z0x9ckMzwXr91XzXAmrROx5QfL++Rmf4/+fbXAfsThvwyx+rTqxcb+OeZ/817fliuzUh/Zpb6KIBnoBa43mlhXp4BCJ0Tx0Cfm7NQLedy/b8ui/3t8tTnIl9VL/oIY1FZdTwH+14dc2Ud0/WFfMbjbAH8G1y3DVCeDCj3rZ1HAf/gjM7xRG5miDtkPcvEM0BqAPOX+uj0ZHAwna8daGRmSAYgHd4NYF7YzHFVtoX84JoqC+djBkPvWFnnLw/yAuSbA/m6bXn99bc4wKq9rrrD0MBr+nm2n2f6McPfzrsbpy5fYWzEz16U9SUy0y39nGwdALNWPejmNLkfdP2cp2d3jvth7zkBd86LY8qp87G/XR76XCBdV08dzi+7f07Xoyi/UFlxrFxbLWojgD/AH89yTFkDo4B/bhCyHbaAuQxKbt86ATKAaPDXvw2Aq0GKByiXhh4w9G/bsWXC2vz0LFIwHRtXl8ENXgUdpiyz+NhF92LGf0LLe2JOwecuvdsAFsNwFdv1IQw/RMrgz0tLymafcX46jsEXH/i4sRE/cF2qOb8/C/SnZiJF9Y2cZqbfsnHEaeAt97d+n8rx6oK/m4xR5Qyl6+qpwpljej/gMLh66HDc//r7BX2yyxthyvU2pTYC+E8Z+vo2e4361L/rMQ7wF7APdcJ6sIl29HpQCgwQLl1/QPD3dTr2nC6by3/IwYXfKMPg9bVv3wnwnzL4r71ljbEFP2Tt9DGlgW1S+Z/6zfWmzgyXAPvpgH1Zu/OdmJMuXGuWA5bqItB/yR1T128Fwrg+NdDHuXOBftSdC10nOh/92+8rA+m6ehbF888F+uqQo+HSDpUZxzrR9wH8Af6Y8Z+yBsYB/q7DVoOEPwPFHbgDbzsI6DBFM1Wu8/cHj8Ag5Oehy6aX9vDvzC31CoOIvMkHD/ROb5mP3AHgN/2wE8bv93f6qGDDLofl+vIflvm0E/rFKRA7lWrN78+sfv3XeTKwuzuX3OfxA7ccVv8+RCTv4RenQcczfV/BEqHMLLtfLm9fpyvxTJ42nOQv56QPzsTTZffS9+OVtmPPr/uu1x/gP2Xowwx5/RnyvrXZWMHf7/j1rE4A/GVAyHRsAZh35ysMEDy46EHIz4PP8zF2ENwAVXHgkBnXXQ9ejxn/Kc/4swPAb1ViyHL6qGjHroYXoBTAxLadDoDYqVRnfn+m9Mv9lHsmyYaTiRLdb3E/Jsd5IsNNfHBaKh6fc32jyseVUZdF/1bpuL5Upct5O6fE9qvuWCQdKa+rRyScyy9UXhzrTL8H8L/1ZBoMBnTskg2Y+YYTNBUNNAH+0Q5bz+IEZqD0oKR/ywAlHT0PUG4wsYOCyVP/th1/JqzO3x9MbHieFZPX1c3VHDxkQMfHuaY/48/g/wcXAPwB/+2Df+knHFTX7GcQbzxvl0G7TqddRwd/C84Mz9m/k2lpACTXLDnOC5fEO+nWKc38AvynArt9m7UfpT4jgX/ZjI46z7M6/gxUBvbt3YDc7A8Pkhba5ZxzAlT67pgXNuqUyOBrnQMXX45X2MqALstNsJ2uAyD2mJUBXeoL2G8f7GubiJ1mRZeo53SAuivt3hj4++C+9LQE6P2Z9AT8j6Ozd6SgL86An0YGpgygZ+NlzgecjKme71p529Z+M1SeUcF/lM7GB/9R0ho6buROQJX0ZEAH8E8X+KX9xR5VbNeHMFJfDZn43T4nQOzUB82hDoD6UTUwNvBn6A4BfQj8t+04j44tW27TNZDuWnlnCLSn6hAG2nma4F+4xrTCjPuoHRDH1w/4htK74osbaOOWg8H1kzKgC3hiO10HQOwRsmMfj0l92w3776b3/9KABr/0dlo00ge2mkpn8o6B2KmPGkSd4AjU1cBYwX8bbaCzTxjQ4ITzaI0Fnvrgb9PwlxKddo1ZopKkdzIttc6Dv15f7jzIMiT/DoQ4Hbm7DQbc1fIlm18GGoNhistr4quySrn8/GP1SuoTWEZV5mhkysp3TpJy6vYIp30NnRRyyjLpDWjgtU/j5Q8Ac8YWHT4/DfCXN0r4H5Sp24GMFF4tCZJnCULpLfrtVfQXxy6nv/+ztTkHQAZ0AP90gV/aX+wRsmMfj0l9xw7+F/90cInsYPDTdHopzDcF7E2lA/Dv47WAOnXHARkz+M+TD5Mh8PfDBIEuArZJegzo+WVAnK4G220WVjOQbSE8c8wPF7oj4YehpK4unUh5pQxl5YrWK5Avt5dpQ+VgZdrQj6McD12OsB0C4B9JT6fVaPk7DPUZO0TqMQ3w71InLeDP8O87AAJeAp7YTtcBEHt0SV+jlFXqOynw/5WLJwTNxtH4SXr/mgnlV+q8jFYOsdMotkbc7oAtbFVsq7GDvw/6KRCq2XSezfdmjHPAFAFpSU9DZy6uA64EYjN55cDfzth75UnykZn2cJhMvsHyxuP54B6vVyiNAJy7OofCz5Pc6dDtVg38w+ll2ydd5qXTT9onFL+o/OmzIJn2dfXr/nkBfwFbbBPAL2sHvgPwh399l3l9JIB/usAv7T9rgCX1BfiPBubjbj+xE4CwGAjRPrPRPlMCf292XmagPdjOgF4QpAUwvfSiUBiATh/8/X1JS+dvw+ShVkGoDi9pFMRLwDmth7+v2yJ3LpSX5EkxqM4frwT+VdrHPd+R1mf48qs2dXXq1zGAfzXQ9x2Bv/71lfTRU2+i93/5PrzDvwXv8Gf4nzXAkvqOG1wvskt9imb8F531k2SW/qx5O/2MXRr7M2e9my7aGlmi4y8fOumdaVh/aa0+5z8roPKTpat+OU3ZTLx30q+otJPyjd9pEDsBbBsE2xFeygA7NGiHIZ7FGzv4+zCZg1YLc7HjDhgjcFscz4K+6mhMx6QdDB9k7b50YNmtBVk/TghIQ+UtiueFL6yXTUccD/9ugWszLpcXNj03Gvhn20Xu3qSg31j5Q23bs2MC/ugMw52hv9SHgf/6y5+kZ19404GmzDhjO92Z/1kDLKlve8Cf+2J/iU4A/AOOxOknDcgBe3CpTzydDMAH0k6cEi5b+kyCHHN5jnG5j9gJfWy4jx2qXQD+wRdODNWWQ8D7KPmMGfzzM+xRIDTgOyC3Rt6HOw+MBWCj6QUeLHYPG1cA/2g5CmFazUSHyhuF8Pydi3i9OA/brmZNfx7gpW2Sbex8/rjvpAXjFzkvymbNlV+1qUo/W8duhwH4Fw9GAv4a+KXTkwEdwD9d4Jf2F3uIffq+lfq2CfwzEG5g2gd2u29m8SOz7ZXAP54OOxH6LUIJ5PsOSTL7ny9vpEwjOAZipyp6NK84Xky0gL/UK1/rVS8icF/vtbDGb0aT75tkXlJgv08i5zLxvHPRb51ouObfxxMttF8Glrxi+TdSD5v/osVpHflbMNyOOl9X/gkDbBV7Ikx+fB0r+Cfwl4X5GBDGjjvAC4F00ZKSIGTnHRGZEU9BPw/ErgwOPJMwmWcF3DkLocHyBvK38fxZ+7L2cOeX8JeH05n2fFkjeQbaJ0lTnmOw9ciFq9I+eUfGL1f18ncb6v16h/YB/vmOSXfWiz9yi5vh18f5twzoAp7YTtcBEHv4durrvtR3UuCfu9Oqlt2E4Zoh2gN/uzSnELirgH9BOn5Zkv10tj9pr7jj0HR7ip2q6JCBWb/tzADu8UTmq+ICwo8lfZb+Dop5U5qEs2DsPkpoQV8AmdOU3zv5nMTToM8Qrfftb5em/Xii7Pv5N1IPm6fAvinrgMg4HbpsAP5Ozf6PDfwTsPPeqhMDdQuXhSCdA9AECB1Aqg+CJXCVh/NkRtt7kNimm4K/QGvWYTFv41FvzZH66Xicviy/EYfC7VvAD8WLHysCels/XsakyhUCy1z60t7+azr9No6Ey6XHdWNHR5UjCdNM+UN16tMxgH8x+BcN1jKgA/inC/zS/mKPIpv16ZzUt2lQzaUXWD7jh/FhOz0fBv/CJTY1wD+Yjhe/a+AvMM1a1XCf2Q+AbwboPRjW5/i3zsNdE36aet/+dg6DPnUPeoYAACAASURBVGfz0nlEy23DuvNF6RTlGYjn6uHVHceHH+PG0XaNgX9uJkJBoIY0gUY/vA/IOo78zsS1y3UKAVOBK+fHeRj4L1rqIzP3ZsZe1q6H4TpTHgZwna5zcmwa+pyfdmDGvrBe+i7BwHNQpPzeNltWntUPz9znwyV3DHL28evg2bvp8osG+rgF+A/fKQp4CXhiO10HQOwxjsGqjWlKfVPIbn6Zikl7DOCPGf9wv+OA2Adkf9+Cr1vKY5f8+GCuz7tz3lIZ5wT4MK339W8uS0n+jdQjkidm/MPaaWMfFSrT6ODvAWbnwMw6B3rmvit1SO5geEtzKtsjDP6TrPto5e/PEiCA//CdqIAXgH+6wC/tL/YIDTZ9PCb17RT4b7Vv1pn4Gv/uLPVxIF5zxt9p3AKzD/p634W1y4CCMK3BW/9W4C9r/V16voNStu+na8Ob9Pxzel//1nHwu/XLfgD+dua6e+CfX8pUD9qnDf6jlh/g73f0s7gv4CXgie10HQCxx6xoUerbLfA/kZKlN+otPltPJH4g190FCK7f95YMbQ2nE0q7l0t9fKdAg7CG+UNEy05JHo414G/DOSfAC6uXAckX1oNOQVH+/rmS/czdAV0P/ZuBXu/79QDwtx74pV+eXfDXy4D0MpzKM+bTBc8qS2mKHYHpgv/o5Z9u+xe3bb2yYcYfM/59cVgEhGWA6ftW6ts18OfyCqC7ZbfeHYDM+aL3+NtlSC6d3OtEJa+ezfhb0GVQl+U8DuYtaMtxfjg2A9cW9uW8jiewz+c4HqcfA3++voryr3TnoqgeGvR98Fd11Pn0/ZrvQ/1mF/w7AvhNAibSqgfkk2ovgD/AH+A/vAamORBPDPxHeJXl2J2SDpRN7DRNrSDvbl7jfbQbwB8OAE0KcJFP2PEA+A8/IMiA3hdw7no9xB59HCxDdZL6Aq7H9FBzQ06F2ClkQxwbvv9F23Wz7QD+AH+A/5Q1APAfvvOUAb3rwNyX8os9ZgUIpL4Af4D/rGge9Rx+vGpL2wH8pwx9mAUPz4LPUrsA/IfvSAW8+gLOXa+H2KMtA9y4yyH1BfgD/MetNaQ//DiBtsu2XRT8Nx85gJlgOAXQwAQ0sGzdbmL4R+eU7ZyqtIeAV9eBuS/lF3tUsV0fwkh9Af7tBf/BDS8R/pI2OP/pwxhn8PYhyoH/+WueMhBy/wv7AX0TgL5ZmtlGXfN3Nx49PG+ut2Xr9qBDHqJDFvDqCzh3vR5ijz5AfZU6SH0B/gD/LjgXAP/6k0tV+oGuhcmB/1nLHzIgctWmPbT+Ncz6A1bzsIo2aaZN+K7ayq17zfW2estBgD/AnwD+3RqYAf7tBX7tjImdugZoTZX3pA2vm7seAP9u9S9N2d9PJwf+7z7zcrp6434DI7z8QJYhyDpkbJNlGWgHtMMoGlj+8B53jV3x0F566uCb9cHfvmNZ3gWtt7GvOfodQJ19fl+0ft90nbjjCisDeteBuS/lF3uMy95tS1fqqyETv9vnDIid2qafSZUH4A/g11rLgT8feOblo3TzEy86MBkFcBAXgAwNxDWwavM8bZ8/Uh/6Ax9TkQvbfCXyeKK5IWbQJY3QFuA/3a/idsE5mDXAkvoC9tsH+9omYqdQvzYLxwD+AH+t8yD46wD4DcFAAy3VgP9VRQH92HE5P+QW4A/wL3M+Zg2wpL4aMvG7fU6A2GlWxzKAf0vH8CHH4lF1DPCfUsOPajjEx4W8Mwb4/nG7L0uBMst1vE/HD05R7arPnZJ8Gj4TtwXXjgzoZUCK85NxWsQes9I/SX3bC/vvpvf/0oAGv/R2WtTQx7DaW9e4wyF2mhVd+vUE+KtxrQXjlm+fSe8D/CGC4ZaZoN2m324+4FubmKU+CuB5pn7hatvxWZiXZwBC5wTu9bm5xUTsOMi5SXdUsfxkQAfYTwbsy9pZ7BGzV9+OS31HheFFZ/0kDQaDwN9P0vvXxIG2PF+AP7eR2Klv+qtaH4A/wF9rBeAPgJ0+wMIGw9nAm8mXGf0Fi1UnF3AOipbsuHPsIHjPCbhzLbKXDOhlQIrzk3EMxB56kOnzb6lvOYAXw3sC/iNC/sU/TYPBiGk0cVegLeVQdRE79VmLRXUD+KsxsUXjV5HNxnkO4A8RDAedaLfpt5sP9Xbfze6zjQIAv+h4dQcg4DzwrL6Z4Qf4d/71mpN2eGYNsKS+AH/l2AD8pz82eOMzwB/grx0JgL93gejGwW9cLK3WgA/+Avp6SU4gjJu5t+f08h13LuAwuHMtumYEvCYNuMgvfAdB7NHq66ZB/Up9JwP+dtmOWxL003S6mdX2j9slQye9ky7aml/qc/pJds3/mrfTz7i0BvQrFyfwbs7b4z9z1rvJr5s+z8uT0jBF5bCOgZcnx5d8JZ/k7sdP0+kqbJqHcjDUjL7EjW3FTrOiS7+eAH+wjNYEwL/BQUA3LH7jQhu7BgJQz3n6r/NkYHd3AfQaf/1b4imnQcfDGv8w6MIByLbLrAGW1DcGnFWPly/1sVBtYN7CL8+s+/u5pT4R8DdgL47DiaRh3oG4mbnPgjmHy0B4IMxFsRl/G7Ysfvq8Q3PLlsROY++TW8oTAH/wiNY+wL+lF6o2En7jog1qIAL+HJah3b2hx4aTZwD0DD8v+5Hj/GxAbBkQn8OMfxZyAf359pg1wJL6VgX8WLgUdrMP+KaQ/E76lczsemDmOwjcMfBPod+UKQTlW5M8M85FbpY9EKaoHNpRsWkZp0O9dUjaIq17oK65chSHETsF+9EZYICmwX/L3sN07zOv0E2Pv0BXbdiHbz49EP9WzzS/Y3TlI3tp9ZaDxlYbn/8hff+Vt8wyNID/DFz0s9rZod79d5hkQAeE5yF8Gm0i9piVa0/qGwP6qscrz/gXwX8RcCuwTmb3PfC3y2rcbL8B68BdhhxwB8KEymHTD8G8X3d/v2obFoUTO82KLv16NgX+T794lG7YdhCg31LQL3Myrt64nx4/8CMC+AP8W/cgkt9pYb//AD+sjWVAnwbkIs+8syH2GNaeXYsn9S2CzirnqsKuXpIzGHjwHgLu2Bp/P25l8Legr54NMK8h1TP5oXIE01dLltQSpaptUaVdJYzYqWv6aqq8TYA/zxhf8dBeA/3LH95Dt+zcR/fs3UcPHzpA22gefy1sg/WvHaB79++n257bRyvWJ3cllq3bQ6dddIeBfyKigXgB63e9brw6vk1Q5kHgfDtv8cAu7bcLd6J8G27umVfhfA3pgMuADgjPQ/g02kTs0RSwtD0dqa8A5rDb2rBrQToD/yHgbhT888uG3MPDFcEfM/7TmcQZFfx5pl+gf+XWvfToYYB+15ydzUcO0I1Pp8uy/vCL1zP3J+B/1vKHAPsdvY0D2G8/7MdstGrzvFt/13bYaVP5BLymAbnIM+9siD3apJFxlkXqOyzwS7za4M9LbnzQ9/f1cp0mlvoEl+tUXOojDoh2EOyyofAa/+Ye7OU2FjuNUwttTntU8OcJKh67vvPYXszst3Bmv44Twndq2JZfveNZOnzkKA1OvfA2c4Bv49y9ex/xbYI6CSIsvGBooLoGNv4wuQ0nt+Du3vEKZv5rzvzLgA4Iz0P4NNpE7NFmCGqybFJfAfhht6Xgz1Cv4N3NtOtjRWCuwg2/xj//IK9beqSBPliOEympY/YtQfFjAP8mdToK+PMSHwZF5kLM9Fcf39vKQluOztNVm/YYm25+7hUafHH1E2aHob+thUa5ui882DBrw3Wv7DfXHS+ta7Kzn4W0BLymAbnIM+9siD1mQXtcR6nvsMAv8QSAzXp5b/28PHCbC6NgPpiOgfH88pzhwf9EusgtMUrePsRLd0x6Gvy3ppAfXv+v31yUB/yknvnjUsdhtmKnWdGlX89RwP/O771sxideJ46xOzt2d7U9eN0/O3N3b3+BBl9f+wOzA6+uH8btqihnsdx8EfKf32Fjv3hNrAzogPA8hE+jTcQes6Jbqe8wMIo4xa/gbLJ9xE6zoku/nqOAv7zF5775/QD/ji/zEbbi1QbMG99ev5cGAh9yEls4ANDAZDQg157fYXd2v+AbA03WSQb0aUAu8sw7G2KPJm3c5rSkvk1CKtJq3iEQO7VZS+Ms2yjgLw/1MiyCBybDA5No52XrkslGgH9PvLlJiAZ5NNsBAPyLZ/Zjg6IM6IDwPIRPo03EHjF79e241Bew3jysN9mmYqe+6a9qfUYBfxmbMOY3O+ZPuz3FrgB/gD88+ilpQC7Cqh25C6e/ynuK9+Vd+YIvf8V3QLRMPzir4w2I/K/5LlxMtMDGM18A1uFPyUK6+Uqwl4c+ZtLm+McTLbRfCl54ivqysC3X3OL8MVdPXXb1Wwb0aUAu8sw7G2KPMrv15bzUt0lIRVrNOxFip77orm49AP79gvYmnAZhDoD/lKCvCSMijW5f2HIR1u3QGbAXrk5A3ICz2l/EoK3PHU80Z6FZx9u5OusYcLyBF9btWwdAHIVoHjacczbsvpRnp3/+UN5pqdIWMqADwvMQPo02EXtUsV0fwkh9AevNw3qTbSp26oPmhqkDwL/bfDAOvhPmAPgD/DHjPyUNyEVYq1NnYFeAznEd0AfAms+52XfvDoA7FwBwDfech9uvk4cNKw5DJh12RgJpVWkLGdCnAbnIM+9siD2q2K4PYT580TrzZp8vP3IyNQmqSKtZR+KkC9caO/VBc8PUAeA/T0tPk7dJHUdn74AjIMwB8J8S9I3Dm0Oa3bqw5SKs06mbGX4P/H0o5yU++s+Ad8BhcPE02Nu7A/ocl8/tW1jX6fPvoHMRAHu9tId/L1icXUJUpS0ENAHheQifRpuIParYrg9hzv72NgOUi+46E+BvP8jVNqeFnTLW5Ue/9vDMvjWtK+CfwrlAOm9PpqUem61ZchzlXn172jXxicsd59GxgzLg30BnnzCgQVE6XjmynDVq/MkyizAHwD9q1GvopMGAjl2yIS6saNzJGjMrROTdlfaQi7AWDAUAvmjG36UdgPCmZvyjeQTy5LCcLy8HYmdC3w1w6aj1/KFjAprTgFzkmXc2xB4hW/Xx2JI7nzVQedoVlwP8Wwr+n1692Njos995HOD/9OHabSBj0yTGUgP+HngnzkAW2g34n3AerXHcVcJot54cdCCydaoH7vmy1oufzXvyrCZ2HQ78TYNq70x+5700rmjQUxsM6KRbJ1/x6g1fIionvjbXAWWrbu/Jt5VchHXhyIH+IaKiNf7+UhodL7TG363F1zP8gTsAbvbfX65jQd/BfAT8l51CZB4k9u5cVG0HAU1AeB7Cp9EmYo+q9ut6uA3Pv0YfXPJAApa3fRbw3zL4P2/udJJlPjc/fqA29HZdn1L+Ts34e+DP47aBbAX6efC3YQJxzbjPnKriN8ECefCfPDeMUg9hjpHA3wf3xEvLz5In4B/w3loN/zMG/saZy9poFIEhbnmHIBehdNSVtxaozXIbhmhZamMhnfdlKY6DcAXpoXMZmC8Bfy5nLA9Oh9M3TkQE/MXp0I5G5bqrL6dOA3KRZ97ZmDXwZ62ueGiXAX+u+xmrvkJY79/s+vxhlg5d8Ogf0Jk3nOeg/0s3f29moZ812nXw3+Yt1cmBvzkfnkAWFnVLg4xzwEx3HJ19Ky8B4snqhHfyMG9n8eVr2iaud4zPWYejNH5m2VKSzkm3JnyZlG9y3CXM0Sj4M+zJ7L52CkLgnxg17yS0BxgB/u2xRTlEd7GschHWgd5QWB/8Q2FadSzmEFjHhct6xRc30MYtB4MDt4BmFyD8yU//Ag0G76EbN+aBOS3/xXT+2wc0ePvH6MnCcJJG3fASbzxbsUerNKa0NK5yXfbAc27mn9tAZpmlPbCdc87RuNvig0vuzOTF0P/MS0eD/ce49NC2dIvA/5vf/xFds+tItH1kbJrEuJoHZxnvEwYTlhS2dDDP8F00o5+b8RfYzq5MyeafX7rD56UM2bBJObPHwvHTZxbEgUhh38QvqkeDq0vEro2D/zayFVMVGRb8k3gn01Lr2bHBM2vu1XERgxhIC9Y0rHhvfhrSqJnlS2yUcvD305UyZMqYSTf1EnX5xAmS+Lz16+HE4dVZwumyZPIP1k+XQ4Qoy7Xs1nqzMRsk+WUvIFOnYe4cZNqI2z4pk65HOL+IjTLp6bomF+pE6iTtXrCVi7DWgGGh2c3ke6/lrJXWBOAoVB79gG/oPB9b9Nur6C+OXU5//2drcw6AQEQKzs0BbQLqv0DnXx9J8/qP0TsGA3rHpy+mKvkD/Os/vB3TRBuPzz37MvE6cn6IVHTZxe0ffeN24r8ull3KzMuv+MHr67fuiwJtGzU0rjIVgf9fPPZDGtzwEr1j7lDQAZCxKcMpBWPZKOHM2G55I5tOAPwVV3LYMBdYx4E5IBM+m57klcnf8FUK5RJGtpmwtj0yxwx7+Fyk803YRrjNpBuMI85Ps1ux6xjAP2+MEPgXGsw2aBIvvSUjjZ82lucIWODTjcr5aIDcFgiTO6bgOhNXCd8vf6iOsXQzadryhI759Ugcg1RUSRkSUHdha9Qvn2de8FEbhPKRCzFzsZUI108n0vZ+eydaCIB/JD1d17HXSekko1nvuFyEdTt+WdcfWrJTN62JhldLlNy7/iPOh4A/w7/vAMhAXwW8a4cpAftSx8Cbsa8G/hEnw0srrQtm/Ceq24hG+1SGO5+9ifivT3Wa9bpUAX+G/5ADIGNT0fjV1DkztofA34NwM277bGF5wfGPHmOZBTLhNYCnXJLJ3/BDylh+HTNhbV6ZY8H4Ot8eg78PwSlohWeV/caVfYmnoS05Z2epA2IxRsgYOzVwEjcxgqzPcnco/LSsoPJ5c3oB4MwdC5cxqZMIKxyGy+nXw+xn1orNkzgW2TJWq1+2HJJWHPyzeXAbhMoeahe//fV+KI15kjsgOs9g/Ydq83Q5mk4/rqu6ddL1K/4tnavALbYJ5Be1A98B+MO/vsvMTKYgXBeci8IXQXXRuXCaAP9+z/j3AS63H9xPK7ddYP74dx/qhDqka/x/9q5Xzcw+z+7L33+44xUD/AL+spU7ADI2JeNi8Tg2ahgztvv8FWAgwyw+2zUN/p6z4dctVNbMMYB/CpEJZKb7pjGtwVIAz4srGI+9rAIoj8ZxnqAPmzGwix3ncobOecdigjTCsG1Rox5B8A3m4dUvGCYA+rpcrq0Ekj3b2fO5to6k4V886b7XZi7f/PFg/X07VKxrrtwu30B9a9cpr+O0vtlz0rkWgS7OZZ2Bv/71lfTRU2+i93/5vkpLbYZxDhJYH9AffdWD+dDdgK++J/tu6d//XKZcKfh/jv5ILTfMLhWKOBTRtOuG9+oRvZMwXDi5AwPY6qaTwzP9Av6Y9e+mDUPXnsz4C9RX3TL8L57bQzw+xcauJo9nwNmOxcl4n+UOM2574G/Cecdc2XjszpxLuMK/O5DN3+Mn64BInFB+2fhJHpprs3GS9CU9U1bDGDIZnGUEVxfFKKMcE+aY2lIfLnwRgBWejwEeN04O1Kwh1aBrlsyIh2nTys/+5uFTN7gxppqBz9XFpqvX7ae/s+CfEYEY2KuHn58pS7AdPOFWKUew3RIB5uol5eOt13ZZgVcQsBc/bd982wfrHwH/tJ31Haa0ExlrnXT7lPyWizDUac/6MX+pDwP/9Zc/Sc++8KZbhzwM1FeLYyE9CPFq/b8Fc+cgBBwDcSL0A75yzMXbGAB5P+2N19GNvy/OSIXwgbJUq3t9+Af4dxcW9Wy/wD9m/btrTz1u3LP/qFm/zw/x+n8hp0Bm+zkNGZvSMbnCeF4y3sXSSsZ2PVaHH9pNxu3ycC6focCf62nhXZhRWFExj2ZIU34dxo+fcT56C/4eeBYBvoHb/IOsYrgooEWB0XcmbFkCDZ96ZHnITPKPHWdh2HRFGGabgqWJb8sYhHq5QCrXI//cRDwPr/2rlIPL4zkapTYwddDtW9ResU4jFid/vA74F7Z5kR4bqVOsrvnj0rnqzhq/k0FXwF8Dv7SNgOa4QJbTZcjWsP5GDs4tfAedg/QtPgnkK2fBzLYnjkU66++DfDjttL7Vwqd3G+rDfJpXeVyxh9in8tY+mC7PqgyG/K5DJr8Kb4zKhJf1+8PGk/gd3erZfgF/zPr3A/yDOrc6lYd7+S6ABn6JI2OTcAC2+fG7i20idm18xl+8Mg1fMYCPHZcGjZ/34FZA2l8XFgRrP66/bw0cjKvPeaCvypCUPw+vUq90G8nbr4fsqzsMJo0g1PtpVinHsOCvHK0l/JW8sjbxLx6/rLp9sw9lJ1rwboflbFStrnFdJfm780PVya9jfF8uQulssU0H3MUfucXN8PvtIqBZB05rh/Vn3P0ZdLufztpbQDbxUtAPw7cP9h7I+3nlluaEw5eVpXYb5PINOwFiD99ORfvygLp+yJs/7DYy/A8L8MPG6yjws21Cs/0C/5j1T/uiIh139RyDfwj4pT4yNqWsEh/HEKY7bSN2bRT8E2DKAhuLwoHUDtVAFtrSmXd1zkJ0MF7mXPZugeSfOh0JCOo83G0ldWsmF0/KFnv1pwNx77aT9xrOXLpcdu/2UyhM6FhwxrsS+Ev7Z9vKL4e/bEcu5qQsRUBv25jvemTurOTtKWnqba6usba3x92SrEi4XHrRNh9fnXT9in7LRSidLbbVBlsBzXGBbJJudrlPDuAtnIeXlTUD/jmQdyAeBv+ysoyrvcQedfQb+/aE/yE5/aE45yQwpB9PtIgdBfuxOvkYXCa8DbfQflRO4mfCCLjPIPiHZvsF/DHrX60vqqP5NoV97KW3Ch/ilrGpaPzCuWqM06Z2EruOBP65gSYCfgJjfngHcRbm/QYqhU67VChNNwBzChA5HOeZX5OVwnGSFs8sJ7PR4TKGZ5aD5fXLGGojP0xg5nwU8Dft6ucRKEfGTtYxCtbJs5c4U6nDVe+CyORr7moUta84WwU2KqnrJOrkazm0LxdhmwaELpRFQHNcICvppst9/Bn66+iN2Iy/g/NkdjznMJjzfnphkE+XAvkz7eHwcUfBj9/svtijsnZ4iU+FZT18B2DBYgtgOo6F9KJzBvJtOHEKuHxlaYpzULku4jh0fCvAP2v1Rn3DDo6MTaFxC8fq8U2b2kvsOhz4e+DXpopNoiwJOHrLTrhNrJMxLABPouzjyCPolIykkTD4j6PssTSbr1O+s5CLEINPePCJtYuApgD62Lay3OfTyUe7smDtr9MPw/RQ4L8xe7chXz8P/G34uKMQLls+3eHCiT1i9sodZ4g/pdzmPDOvQZz3zYfr/Nl5vR/7bcG8cpodB/lcm5fUB+Bfrse6bdrl8DI2xcZHHM+P511oE7ErwH8YQLUzylnAt+vV/XX4w6TfqTh2qY9aOjX6BTBt8B9HnfIdhVyEXR4gplF2Ac2mwDWejgVw8/B++sCuhE+gXt60Y6GZnYW3f4yetDP/w4H/dRRKm+9AJHDvg384/BteWaTcTW/FHpW1wHBeNuOvAd5CKy8DGgn866RZAsqV69qRdAD+AH+taRmbRh/L8+Me0pxem4hdAf7DQra/nGTINe5dvwiqLJupX8fpgv946pS/2OUi1B0ufpcPwAKaTQNsKL1kuc+ABt7be1xYe1fALTdU0M9hhgX/NK4sbdNlyIO/KU9JWVyZveVIox4Xe9TRrpu998BYr/GvPDuvgT722+ZTOU2vXHXq1sWwAP/yfqeLdh22zDI21R+78+Mc0mhPm4hdAf7Dgj/iTeTjHn3uNOQiHLZzntV4ApqjAiviD7e0x283sUcdPVZ5q0/l9fgx2NfHLchXThPgX/jwZx1bI2z3nAoZm/o8/s5i3cSuAH8APAB+ShqQixADY72BUUDTB1DsNwPyddtR7FFbxxXe488z9PLmHrfe3wd6b5/vGnCcZd5xKV+lNAH+AP8Z04BcH7yVsWkW4bjPdRa7AvynBH19FhfqVu3WnlyEusPF73InQECzLqAi/HgcA7EHtFuu3ba2EZb6dNd249CUjE0Yy6uN5V1pJ7ErwB/gjxn/KWlALsJxdNx9TlNAEyA/HpCv265ijz5rru91E/Cf5e1tT1+Luxz2LoeMTV0B2r6X07xlsIEXqIhdHfhvPnIAADglAOy7aFG/8KzBsnW7zS3VvkNF0/UT0KwLqAg/HkeB7XHMMceU/v3l578IsGrp8pFZBn6pO8A/veshgIixOzx2T7pdGgf/89c8ZeDj/hf2A/wB/tDAhDTw6OF5c90tW7cHMFQThgD+4wH4YR0jgH8KTE07uUhv/G372IFdxPAP8E/bejTwT97Kd9Kt9rXY5nXI6Qc3kzeg+R9bldehy1vM/O8klZz337LoPlCaxMu8et2ElfS5jMfR2beeR8eackq5ivJrun5SRt1esXIMaDDCzL/YdXDW8ocMgFy1aQ+tfw2z/pP25JBfOzzqSdqB766t3LrXXHertxwE+AP8aVjobkM8ccRikMoz/XxHADP+KVjF2grHJ99GAP98mwsgDjcuCsBquE6AXgDczGB7cK6B1rxS2zsvcblMmRlw8+FUAWWfJwSq1fEc+HPZpKwczkK/AuxsecZTvwE7IDuScmbbx6vvCJOTYtfBu8+8nC647WkDIXxQlh9IAGyT5RhoB7RDExpY/vAed61d8dBeeurgm8OBv31jibzxRG/NR45qwnQQOCJvRQmGbSK/imkIaLYBeqdXBv9d/v7+5O4KiD1iupgV8NffIIi1BY7nIXPabQLwz9tExrpRwD8K6gyuGr6D4M5wnYKwX44QiB+7ZENgxUI18Ndl3VZangT8dZyMI1K7fmVlHAP4/9oZl9Jvnr2cbn7iRQckYnRsAbvQwHg0sGrzPG2fPzIc9DMgx6DcviKxMfivCOOTHLwFNIeC7us/Ru8wt3TllrJ8DXdyoDxUuXMf3fJB39+fXH3EHjENAPzzYBVrKxyffFsB/PNtLuO+D9zV9ocB47Q/dh9DHAzIwbWBcS+MuyPAJdCpewAAIABJREFUs+QyC89htMNQBtX5sibg7+Vlx4ykPPk45eBflF5ZGccE/gz/6HDy4keboE1aq4EY+B8i6vvMo4BmXYBOvqI7oD/6qobiBJjf8emLx7PcxnxN9xfo/Ot1nk389kHf328ij2ppiD1i10oM/PX79LWjqo+7d/dbXS9anL7Xf8Fiop3qWwBm3zqqfA1UDStOtNw1W7ja9nt8jXE6p6R5unM2H1fW44kW8p/EbaHDHLPPrB8H+OfH+cmDv4Z1tSyHZ88t9DsngOYpO+PvhTd3EyS9MqjOQ3x4xl/nkY9TDv5SHp2O/C4rI8AfDgoGFGiANVAF/C24MJCYDxr5sMIfOYqkZZyHxUQLJEwsru9o2HI5AGIwO55ozsZvAjIENGuBv53pz0J/NbCtlY8/Mw/wN2v7/TX+GedUaST6ZV2rs8EpCsr5417evjgKnL5/zt+XsAzvzvHQ15X97RwKVU7Wca6sA4B/E9f3pNMA+E8Z/ANr6jN3FnLgn4D3IDPjLxAtjkIK2lkot3Hdmv48xIfW+GfKY+8uaEckm4e3lKmsfva8Ti+zFEqeaYjVt8aaf3HoBjzbjxn/vPAn3fkgP9iglgY0oGiotjOgGugdhHuQPsezpxbKMyDGafNxLw8dRsc1vwXAVidxBZb4nPyuVT9dJ+/3MOB/4+/zrdb30I0+mIf2A8uBfIfB3D14+8foyY2foz9SS4fSOwd2Bl6dM7ewf/9z5s5CcvfhPXSjyiuNex29oY7Lre9sGfwZfn/fOjXG8VC3mW3+4syUliPUPt4xsUfMvrkZf09XOh5DuAA5H9dQzvpzgC53AB5L+41hw+r8JU99/bjyeOX2y6qvDz9N7Kd2altbAPzzthFAzAKvgutC2MzDdDEYc7rJrLf0dck2feDWzPC7vvQ4OnvJyeTA38zwqz5OLxEy5RTY5zAn01LjSEja+bImdS4qTz7OaPUrn/GXux6mXdRDx3XtI3YF+HtQ0bZOCeXJd0pok3TGX5Yn6K2DIwsq/r4DGQVWGt4drGvQ0b/tNeNAi89ZB4JnQRcx/FtHYBwwJKAp8Fq+tXDuQW8wngXlDITbYxq8ZdmQdibkmA73RmTGX8IOBoFlQJXK4IO+v38dJXmrpU3WmdB1KyyHB/jB9tp4HYk9YtdlEPxDd4ECGtOwr39zXv6+02PgXFFYTot1q6+hUvAPlJXT0E52rD1wvF19OsA/bw8BxLpgifBVnaPphBO7AvwB/lg600UNBMAjBxR+GLuvAYd/G8eAz6nZf3dMZmCL4ioHggGLoUlmQ2WbK9sIbS6gGQPR/PEE/DXw5sPwDLmF54CDYO4YmBn+ZCY9AWYf2gP5lIB/vkxVy+CDfmTfq0tS7vTOh4B/vhzVl0GJPWI2DoK/6MrTga+XYWHeB31/X6fLvx2w62tG/+Zyevt+WTkPl45Xr1jb4HgeOifdJgD/vA0EEAHy0wH0cbW72BXgjw4a4N9FDXgQEhws/TD+vldvN1svs7E6vP7txeO8zWwnL+vRM/+8lEiWAAXiBMtcIZyAZhjeQ8AaAPLQbHZgRlzy8EHfB+gkXADaC8HfdxzSJT4hEM+WIQL64pzYumTuPnCdvfJk0wy1XfkxsUfMnjnw95acaaBmHbmlYd6aeh/e/X0N8/45f9+F9XVt93OOL+vSC5srq3YgKug41l44ngfRcbYJwD/f3gKI4wJQpDsdh0LsCvBHBw3w76IGPAgJDoyBMAxAblbSP2+fD3Dg5Z0vi8vQL3HNciG1HyzfkO0uoClQXr6tuNQnBstRYE5nzpsG/xyw58pQDfyza2ZlHWzqcEwL/FkPDN9y98ktR/OO62VpPrz7+w7may71McvcpCz67Tye/n3w5zpwGUwddLwhdd3kNYK08jAbaxOAf76tBBAB6NMB9HG1u9gV4I9OGuDfRQ34UBKqQyRMDLh4YORzDrYC8aNxbVjnVFgnQgNdbOCte7w++PuQHJnFnoUZf+9OxzTBv67dET4PaGiT0dsE4J9vQwHEcQEo0p2OQyF2BfiHgAnH4AxAA63VQH3wlyUu6kFXD4CjM/Y2XHiN/xhm/Cs/Z+A7M/5+teVNAP889ACmZ6tNAP55ewsgAtCnA+jjanexqwP/9btepxu2HaQrH9mLL/g+MJ6vtUqjYzub7XvFQ3tp9ZaDNPfMq62F6i5Az1Dgv/E6Sl7pmYd/Pi5r6hMQzoaJH6sA/pG7CEXAHc9Pl8sHfX//OgqlY9b4y3MAGyVMuvSnfNlU/m6J2COmndAa/1hYHM9DGNpkvG0C8M+3rzDKuAAU6U7HoRC7GvA/a/lDgH3APjQwQQ2s2jxP33/lLTgAQ9xZEdAcBlLlFZd67btAv0vPvk4zDZMH4wSqK4C/g2u7vt6+ZacI/E05Ssvgg76/bwHdT0dBP+dTWo7gnZEs/Is9YoDaZ/B/5qWjdNkDz9GXbv4efWr5JvdqU2kTbOcm0ianfnM9LbruSfrGfTvp8f2Ha/WrZeBvnuOIvKSAH/AufYFBYMmku1aKzum+sWo4HWeE3wKIAPTpAPq42l3sOjj1wtsM8C1/eA/dvXsfrX/tAI0rU6TbLxHBnvXsufGHB+je/ftpxfrkjsfdO16pNUC5wWKEDr0PaQhMOVCvAKcIm4X1JttD7BHTVl/Bf+7Zl+n0SzdOBGyljbEtdyQ+fNE6unbTnsp9axn479QfRfT6Xn7myT3X5J1z10MT0N5EGrHyBY4LIGKMrzfGt729xK6DL65+woA/Q3/bC43y9UuEs2rPda/sN9ccL6tzg0Og88W5/C1obhOBnybhFWkN7xiIPWJ67SP4M/RLvU/9xr100V130MqNt9G6nTfjbwptsGrzrfTNudvpzG+tdXZZ8dCuSv1rKfjblx7kAL/AIchcC01AexNp1BhjBBBndYzua73FroOvr/2BgZBHDwMq+2ps1Kt92pYLMDNA1OiYZzmeABdgfXhYb7LtxB4xTfYN/Hl5Dy8t4Xqf/e17aO2OWwD7U4D9mJN1wR13GNt8cMkDtOH510rhvwr4h5b0ZL7jYPtu/daz3NvRrKPAr391ToQP9HZfXnMbDVfw2tvYdVjnuIxPYIf2scMoNhG7DuTHKIkhbr/EAXuO355y3dXpjP2wZjDi94/LB7fEcfAHEzleth02Xlm6DZ8X0GwSXpHW8E6E2MPXp+z3Dfx5TT/XmWf6738WM/wxAJ/m8XNW3WNsdO4N320E/EPLfRjy9euK+VkAAXXzbQjplwXm5TkBfafA63MzS4f0Of3b+wBeJq8afe3af7yDvvfiy8H2kfEJLDB+FphkG4tdAf7UL8NOUkTIa3jtyAUocDTM1h94aqfhDSa149cYZJpMW0ATsD48rDfZdmKPmI37Bv78ECnXmZeWTBNukXfc6bp+663GRvwMRkyXcrzKjD+H1WBvHAEBe+4HA32p65/tOeck6LD6NzsEOk3dv+pw+rcN4/LScUp+r9x2AfFfyAGQ8akTY/yO8+jYgXyc8GRaavZPpqWG7TbQ2ScM6KRb1Vh968k0GMh5Pp6ESV/moM9dQycNjqOzb5U8jqNjTxjQ4ITzaI1ixzVLjssda2PbiV0B/sp4bTQUyqQu2B7ZSi5AGXxqbwOd/1TSKBlcapepQnoCmk3CK9Ia3okQe8Rs3Tfwl2U+DJeA7zh8T7Nt+E7MBy5MHgSO6VKOVwV/M7NuZ+1zy3xsfyxLdGRrYN/vq/W++l04c6/CiZMhecjWORYV+lCuu4C/bLUDIONT+/nDQvtp19hnVBnU2QkQeC8Dfz/+PGUh3k9vnrYZx+E4OnuHsEmSxrFLNrT+OVmxK8C/RzDZ/otULhRs5QKUwafW1g4C0uEvXEy0gG8zH0/Ex5bpQYIHAT/86uShWZ4lkjSKBqhMGJXeosVp/AWLww/i1qpXxQFLQBOwPjysN9l2Yo+YrfsG/lLfaYIt8i53OMROMV3K8argL/1orn9VfaJb16/7skh/bMLqcyPM+Etd9FbqJWBfdcsOwOXrdphnP1vPFGZ2X0O4gHlF8A/FJzvLb8A+Af/MHQN7h8CBfjCNdjKOcAfAH+Dfei+19Z3PEBqSC1B31LV+6wHD/pb1pW6AsoMPA37wnE4jMHhl4gXWpTrY1+f0gDem3zKgNwmvSGt4J0LsEdMvwL8cUgHyzbdRmS5FrwLItz19bemyIF7uw5MsoXf3Z5YC6b5V//b7We9cps+150KTMtG8VJ8r9aoK/BLuhu2X0hWPPNgN8M8t2xkG/GWZUHabwH4I/LN3BbJ3CNoJ/MJQwh0A/yGgTRoR23aLvM32kQtQBp/aWz1g6AHCH1iqziL58XT6djDhQUkPQu7WciBs7fqoAassrgzogPXhYb3JthN7xOwG8G8eauEolLdpmS5FrwLIVcBfHvJ1Eylev8V9ZOwOqbsboPtL/Vv1wZKGy8cP573Vx/XFqjxl9RLQly0D/8bdTxjnR8anNo+hpmyh2faMM1Cy1CcUP8OEYfDfZu4K8LMDgfQz8dvFSGLX9oO/MYx4YnL7JtaYdr2W9+BFffE2lU6snG0+Pst1n5xd5AKUwaf2Vg8E+rcaPHigqbxu1IuXe3hNP9xWkF/teqiBqmpcGdCbhFekNbwTIfaI2Q/gXw6pAPnm26hMl6LXMkCWcF3bltUrBPxSRxmf6rPT5MbQpGwJmGeX3eg1/vO09LQBDUqeAUjP++WPgb9NN/M8gR+3ffti1+HA33hUAuN6GwZzcyvEPXWdhs+umwo1koVQZ7RQGH2sKWhtKh1dtq78nuW6T85GcgFKR1t7q+Fb/64A8C6vonj+OTvDpGf8gzNYQ4C8K0/FuDKgA9aHh/Um207sEbMjwL95qB3WUVi56BdpMPgt+krhe/cvoT9fMKDBgo/TysJwUq+64SXeeLdluhS9lgGyhOvatqxeeobfr5uMT+0H/3na5k8OZ2b8eUxP4D15a4//1h8+b5knw6jCsnHwTx7y1U7F5PhhWLuIXUcCfx/cjWc1GJDzvuwtjwT8sw9giDPgp5GtkOfNjeMWihFJtmzZMrTfmChv92wkF6Df4Vbe12Cuf/vg73910obVAO9uE3vpZNab6nX8Xjj/mYLKdagI+n56MqA3Ca9Ia3gnQuzh20n2Af7DA24C6r9Ifz4XSWPu4/S2wYDetuiSSm8YAvjnX0JQBsii465tR6mXjE+dZIsc+I+JD0qXCY0p3xE4WOzaKPizSEJAHwJ/8dJ8JyEjNOvJFYYZoRFMXgB/PNw7qoaGiC8X4NCDiYZv/TsA/gLmuXWjdvkOHzdrSSPpSLyYgyDpuzsAQwK9botF22+iBw/sCz5sJ6AJWB8e1ptsO7GHtp/+DfCPQHuV2fQSsC91DLw8qoF/3fJixl/rvS2/Af7jBW/DtSMvKx9vGTM8TfPmgW1mj8bB3902UQ0yDPjL3YP0owrpLZUkPbllkywdSpyDyDIVA/fpEqNkPVfo9o7kEUknc0spSc+/Y5GKQd9eyt8F8Q1SNV687lZAwbom55I2lVtYSnA2TlKXSN0L0k3K5N81sfX3lmm58leF5Uy+nEdSPu0MhusVuVuUSU/snbaFK5+yNecVzkPeIODXPU3Pt7Psjwz+DcB1WwaoUDneMfc5GtxwIr33ka/QrXu+n3EABDSbhFekNbwTIfYI2ZGPAfzrgrQOXwTVRed0GulvgD9m/GPXqT4u45OMV53amjE+wDlVmaNSuDyHdKGNxK5jAH956CFt+BAYRkFKN3pkxj9Jj8HbB64AtFrQ04DOebt9c756Oho4ZY2XS0vd8Ug/IBG+C+KLJFgnW3adZzCctJlfV7/9/PM2XtYWFdrQT9ff53Q5rxP4K3fZL9yZvLxjflu4fb+8Nh92BnWbZMsv0B0A/0h6Oq1o+/pxddtVrY/YSXneurPF73RQFvBn+Oe/33joS84BENAErA8P6022ndgjpl+Afwrew6zNT2B9QO9b5qUTuhuw7LcoM1m28G8yS4BS8P8bep9a05xdKhRxKKJp1w3v1cO7KzFMG4XilOlS9DrKzLik0cbtKPUSQHRjsRq7cEwYo3tbsetYwD+BpxSmU5hSs+7c6XizwTlBhYBSwbUGtiSuD612vygfA3RpWeum44OsX/ckvQCEeheStJF2IjhuOP0s+GbK7NU1SVecsFB7+GWr1oZl6fL5Y5ecl3zu2n3hzs+r6MIJlTV9kEfbvhr4h9PL1iN10nT68fatU59sXeUCDA0YG194ka7Z9fhE/v7isatpEn88c88wX/Xvf7r5wwb4Bfxl+64Hv0AyoDcJr0hreCdC7BHSMh8D+I8KuhbSgxCv1v9bMHcOQsAxECdCP+Arx1y8nQGQ99PeeTN9ZaE4IxXCB8oSgvUmj5XpUvQ6CiBLGm3cjlIvGZ+SsS87duFYd9tD7DpB8PfgWmZvPVDNiKoQ/L30DEh70BqJn8mjCvgXpJOAY1oWHySTvMLQqcsRjicg6qef7rs0bBl9x8H/vHQuHxNPpxduw7rpLj0tSZOh3MUNtnXsIopBdf54JfCv1T66PdLy+bb229bZwnPqQsfdBWhntAVssU1m+GPtwA6BDOiA9eFhvcm2E3vE4AfgPyr4J5CtYX1dDs4tfAedg/QtPgnkK2fBzLYnjkU66++DfDjtFNKrhU/vNozeHmne8bTKdCl6HQWQaz3f5D9DNeblmqPUS8an0NiFYykTdK0txK5jAX8fxHLAZMEodtw1ZgS44/EqQqsGsyCM1kjHi5+UTWbYRSCTA//MbV53K1eBrAfApryZpSrhuldLV/JhOE/awKRvnbt8XtI+gW3E9vJqLj0j7+st0Y/nINj0yuqR2E/q4ZXLK5PJN9N2XnitM++3uwAD4M9wW3VmfNRwn9h25URm/M9/+p5adzD+0z1nZGb8//maD9Ipmy8jvhsiA3qT8Iq0hncixB4CUv4W4B+H0yoAa8L4M+7+DLrdT2ftbZ4mXgr6Yfj2wd4DeT+v3NKccPiyslSuey6/au1ZpkvR6SiADPCvPuY5rvPGQhyfXBs67pAftRrfwK6ayc0YMg+5UZgqTCe8rIPLGU1P3scqMOaBWrCOHrgnYcLwq2FT0vLLkuw3Df5pen5+Ug55S5KbXc/YRAsrqVtSF/1bwoTrXp6uAm1ud20D8zuUl+QZ2qr0MnXJH68D/mX1iLavKYNum3w5nC0y5Q3VLX26XgYfbNP1/dwW7NDIrP+HN/2DAX5pIxnQAevDw3qTbSf2EPv4W4B/NVAtBuHscp8cwFs4D09sNAP+OZB3QB4G/7KyFNd39DYr06XotBL429cZ+284C36p1ws7OCXp24JhvS/wZt6M5qXj3qpW8U5BpXpF0lq2bo95A8zmIwfw1r8K43mdsX+aYZet223s2viMfwJOWacgBlOx465hIuAej6fBjIErgbPCZwmqgL84FIFlSf6sb1K2FNSTuthyBeJLXWN1CqcfmpGuDqImL4Zx075+WuE2DDk9UnbZSlmXmvX9G2yHweXiPGQbBmFJI91G2iygiWCb58JVa5+YHaRc7vySkwMPl1etG8BfBt3YlsH/pA0XBV/pKQN6k/CKtIZ3IsQeMVsC/EeHWIZkXlOfLPfxZ+hvpnWxGX8H50kZcg6DOe+nFwb5dCmQX59w+Lij4Mcfz36ZLkWvVQCZod2BNwP58URzDM2B5Tuh75+YuIGwi463r1IOfGU9mmcE1qU+sq1SLwnrb7/z6AEDiPe/sB/g3xPwZyeOJ/qvfHhvs6/zTKAo/+CpgyX3kGc6m18I5Tl4S8AqmF5uRlaHzToiDKgOZIN5+PArdxmy6Uh99SxycmxY8PfeVBS4IxKve7iMydt1sm/WSe4OHEcnnXYcDWRm3om7Wt2D6Zrynkwn6XX91mk69oTjSL/pSEC6aJtrX2srnkly9uNy+zaMhMulx3G5zKoNito3KWviQJjZLBWvqB6hc3Knze9wsZ/Mjj320qHMKzx1u8iADlgfHtabbDuxh7aR/g3wbwhsZbnPouSjXVmw9tfph/McCvx3Zu825GfqPfC34eOOQrhs+XRHC1emS9FoFUDOwLwG7wDMS7qydQDvh/X39dfR/Q8v6jwr/q5SLymjv739qZcNJN75/D6Av2Oj6hN7oTF/2sfYiWPuWLN1fjTwz93Ki4CQAJcfPgNvocb1gc6GicNZHlq5sXP5ezPvmfPmXDid5GFO/WYif7Zc8hoW/LPfJuD20k5FWpd8vk5U1llwbR20ia2fD9CmfSvWPZiuQHG2fK59vXZ3ZQ7ZPmNraXNu1/DMvcvDPNfA4ZJ65DRW0j5JOtny++U0dzYCtvHDFe0D/LNLe/yBp2hfBvQm4RVpDe9EiD1iNgP4jwawKRBbADd9XPrArpxPoF7etGPzZGdhwcdppZ35Hw78b6ZQ2nwHIoF7H/zD4dd5ZZFyj2tbpkvRa1VAZoCXpT7mg4cM4AF4l2MSlrfBGX8bV4dzYS3cB/OcAPiv+8dDBhKv3ryHthztNvAWjcOzdO76p/Yam6575uUhwb8A1GapIZusawKcvsOACy7fxmHwz4cbX9sl4D+arQD+AP++OBtlgAXwbwr8ZbnPgAbe23scPNu7Am7iR0E/hxkW/NO4Mgmjy5AHf1OekrK4MnvLkZo6XqbLuuAv4XfatfdmPb4P/nbfLQvSs/iRsJl1/TGo13nGwnjHqzo0rl4q/jMvH6UrH0lA8ZadmPWfJF+MI6979yez/d+ce57mD/0I4D+ORh4mTYB/VVCfNvjbuxpD3L3QugD4A/wB/sNrIAQrkzomQNkUoCKd5hwj3ZZipzJdlAKyD/MawovOHSJadkpyl0DP+GunQK/xlzsF2qFwYXWeCtCL6lZar5J0tuw9bGaIeay64weAfz1+d+k3L/FZ/nDysPaffv1e4n/DPdyLGf/G170B/LsB/lWWAlXpFAD+w0OfDOh9Aeeu10PsEYMQzPiPB2w15OJ3vo3LdCl6rQTIFrxlWY4D8kNEDO98XJb/yD4fW7A4Oe+fk30ug17Oo9OVOwuhPKXsRdtK9SqB/7t3vOLgf+XWvcQQiaU/VVlluuEefOkA3fj0Pme/c1dto18741KAfxVAQ5jpirev7Q/wB/h3Hfil/GWA1UXwv/zaNeaLw4/vfin3kLnUF7Cdh+02tYnYqQiO+VwTgFyWxzTON1Wv9btepyseSpb9yLglr4WUfWyT12S2oR1kdl/Kwq9mnXvmVQP9AH/ctWj8rkVfIX0c9ZKLchoDQtfzlAFdwBPb4R/MbaLtxB4xXXUR/L962bfomGOOoX//v/6HnAMg9W0T5KIseSdE7BTTpRxvCpAlvbZsm6zX0y8eJX7Tz+otB90Msoxh2LYH+rUtVm2ep5ufeJG27TtsJi8Y+gH+AH+A/xQ1IBdoWwaJLpVDBvQmoBVpjO40iD1iGuoy+DP8+w6A1BewnYftNrXJwr+/m/74slvMjD5DcOzvkec30cptF9BtT1+bu7sT03QXjjcJ/l2oL8pYfBcd4D9F4BvH7DHS7N5yJIB/cSdV1IkLeAHaR4f2JtpQ7BGzmYC/QHSXt3wH4Nj3/jG977xbqU2Qi7LknZBPX3WdAXqG+mp/F1YMVzW9doTrm0MT62dwvHhMDYI/Ps3cPXgE8HfXZrJGEp1VcWcVah8BzSagFWmM7jyIPUK24mN9An92Wn7hV3+Pfudz1wL8x/QazqacmE8uW0MrtzHMV/x7rB2gXs1JqV5WgH/9MSbWl3X5eAb8z1/zlFmzhU8zdxci4QB0y3aPHp431xw/dNPljmRaZRfQBLSPDu1NtKHYY1p6GEe+ssZf3534yKmn00PffY6kvk0BKtLJz9Y30SZipzJ9fO/Fl81M/w3bL0V/XPKWn7K2xPn2OhkZ8D9r+UMGQq7atIfWv3YA676xDAgaGKMG+M4avxaNl/rwg1LoKOt3lDKgNwGtSGN050Hs0Scta/AX4Jf6SX2bgFOkMR7o53YVO4ndYluAf/0+ONaWON7etsyA/7vPvJwuuO1pAyIMI7IEQdYgY9vOJ7Zhl+7ZRb9mi1+P9tTBNwH+Q8wwyYAOaB8d2ptoQ7FHnwZ9Bn8f+KV+Ul9A+/igvYm2FTuJ3WJbgH97YTVmMxyvb7MM+PPOb5693Lz2BzDZPZiEzbpnM37N1vb5I4D+IaCfO3wZ0JuAVqQxuvMg9piVwVjq2wSc9jONS+jPFwxosODjtHKKzwGIncp0CfCvD5FlbYrz7WvTHPjzARiqfYaCTWATaCCvARnQAe2jQ3sTbSj2mBWtSn1HhvZlv0WDwSDw91v0lSkC88j12gnwn5VrAfXMj09tbROA/5AzjW01KMrVnYsPthrdVgJeTUAr0hjdeRB7zIq2pb4jA7IF//ctyy6Z+crCxBl426JL8OagERwgsVOZLjHjP3qfXNbGOD/9Ngb4A/xxhwca6KwGZEAHtI8O7U20odhjVgZ3qe+4wJ/TXbnoF82dAN8pGDnPEUC6a3mLncp0CfCfPpSW2QjnR7cRwB/Q11noQwcwegfQ9TaUAb0JaEUaozsPYo+u66pq+aW+I4NwZMY/STe7XCa5CxBYAmTS+EX687nkroFxGMza+r+h96llRKG7B3JnQZYb+WHMeU5r7uP0NpWWOCM6fjZutuyunfylTQv/Rt3RsHFcPoG61nRaxE5ldgX4Y0wp00gfzgP8Af4Af2igsxqQAR3QPjq0N9GGYo8+DI5V6iD1dUBbE0hdvELwv5kysB8J6+DclkHuFAwGKTjLMQF2zp/jZWA9kH4K9mla6bEBufRycQPgnwuTlCFJw4bXjgCH1/tDtLHYqcymAH+Af5lG+nAe4A/o6yz09eECRB1GG2hkQG8CWpHG6M6D2GNWdC31dQA/BJSauAEY1mkmwC6z+QE43pnM6muAz8aRZwfy4XQ+yW97h0DBdgL5KfTrMus819lypKDug3+o7FI23lYpnw5f7bfYqUwGdPbKAAAdqklEQVSXAP/R+uOy9sX5drQvwB/gD/CHBlqtgTVPXUlb9u4IllEGdED76NDeRBuKPWZlgJf65uG5GpC6eLXAX9b9iyNwM60z8dW+ezbAg3V5y46CelcG57Tk4TwI/nbZj5vtN/H9uB742zhZZ0G3lQ0/8O5CuLLpsNV/i53KdAnwbweYltkJ50ezE8Af0BcEKlxYo11YaL/m2m/ltguI/0IOgAzoTUAr0hjdeRB7zIr+pb55eK4OpSZuCfjnwNsDaHPee1d+MuNfBfxT2JY1/marnINc/gziI4B/1lnIt1WSn7ze1K9DPnxZ+4udynQJ8G+u3y5ra5yfXlsD/AH+AH9ooNUaEPCXrXYAZEAHtI8O7U20odhjVgZ1qW8ZeJaeLwR/fxadwVfPpIeXx1QDf52OAHU+v6bBPz7jL2WwW+tc6OcUStsycHdA7FSmS4D/9GC0zDY435xtAP6AvlZDHy725i72UdrytqevNbPuAt9t2LIDIAN6E9CKNEZ3HsQeo2itS3GlvsPAaCZOAfgnAK8eoLVg69bwL+KPf2WX+XDalcDfu3OQlGmM4J97BsAD/QC0h5YxZdouFMc7JnYq0xbAvx3jTZmdcH40OwH8Af4Af2igVANtBP87n70J4L9xdFhv0uGpClh9GbilvnVBNBc+Av4C/eEZcvsQLr/20lvmw+lXAv8AiLtlNuNY6uPKlXVkOE9TR26HTF1CdyQqOAsA/9I+vS/XIOpR3wkA+AP60EFAA6UaEPB/7MCu0rBNd8T+3QUG/u0H95tyCHg1Ca9Ia3hnQuzRtAbamp7UNwfyHniWnrfgn1ljHwF6nZZAemjNfDXwT9fqS94M4CbdMYF/6pTIGv5B5nWd4uxIebKOQH3o5/zETmU6wox/fYgsa1Ocb1+bAvwBfRMHOXQE7esIymzSBvDXwC/llQEdsD48rDfZdmIPsU/ft1JfDeOT/J2A/+gPv06yzNPIS+xUpkeAf/fGpjKb4nzepgB/gD/AHxoo1cA0wT8E/NKZy4DeJLwireGdCLGH2KfvW6nvNGBW3nmfvjN/uNnw6ZR9smUVO5XpEeCfh8SyNsP57rUZwB/QVwp9uLC7d2E3bbNpgn9RXWRAB6wPD+tNtp3Yo8hmfTon9Z0GPCdLYvIP9U6jLG3PU+xUpj2AP8a6Mo304TzAH+AP8IcGSjUA8G8HWDcJ6eNIqypg9WHw5DpIfdsOvrNePrFTme4A/gD/Mo304TzAH9BXCn19EDrqMFqHDvAH+FdxFKoCVl+uR6nvrIN12+svdirTHcB/tHGirH1xvh3tC/AH+AP8oYFSDQD8Af4A//yg/eGL1plZ/zufuoXaDr+zXD6Af167gPDZbROAP6CvFPrQQcxuByG2byv4f/RrDxvw2vXg9VQFTBFmvA7Mxy6619hDdNP37dnf3mbqe8VDtwP8677CdELhb91+i7ER9xVlesSMP8a6Mo304TzAH+Bf2hn2Qeiow2gdelvB/4wrt5hB/al7bwD4t+BjXjyzyrPgs3K9LbnzWaO/c1bdA/CfEMjXvXPxtbV3GBt99juPl+oS4D/aODEr133X6wnwB/iXdoZdFznKP3pn3lbwP/eG75pBfeV1twL8pwz+W+5KvqT8qeWbZqZPmXv2ZfrgkgeMBi97ALP+daF83OF5tv9DX73P2OfaTXtKdQnwH32swHjb/jYE+AP8SztDXMjtv5DHbaO2gv/1W/eZQf3T/7AW4D9l8L/kmmRmdek9/zhTfcplDzxnNMh3OxavuZsYNscNtEi/+DsAa3fcQjzTL9BfZbaf+1CAP8a6cY+lbUgf4A/wn6lBug0XXRfL0Fbwf+alo2ZpCUMX1u+Pd/1+Ufs+cc+NDn7X7Xx15voUdnbkAVJs56baFh+4MJs/Q/93XzhSSZMAf4B/F8fnumUG+AP8K3WIdYWF8P3qQNsK/qwzvoXPsPUHF8zR9+ew1r8I0Mdx7tX1q+mPL04e6uU177N67fOyH4ZMedNPVx2A9/7tJuK/rpZfys0PXldZ3qP1CvDv17ilbYvfqW0B/gD/mR2o0RGkHUFZW7QZ/Lnsstafl/zsW4c3/IwD8ENpMvSfv+IuA4mnX7qR+A5MmZZwvvp1N422+sTfE/HfNPKedp4A/9m0+7R1N+n8Af4A/5ns4Cd9oXU9v7aD/+P7D5O82vO/LrmP1t6yBkt/xrzmn5f3/OnX1hro5wdcZ3GJT9eva7/8932P6D+flvzxb/983/cB/rNn875rOlQ/gD/Af+Y699CFgGPFHX7bwZ/tx/Avr/fk2/08E73+jpvgADTsAPCrU6/4zu1uKQjP9PMyF1xDxddQF9qHZ/oF/Gdx1h/g330Nd+E6m3YZAf4AfwzY0ECpBroA/tKZ8ltW5BWLst5X1qDLPrbZByCrtIfM7uuwvKYfy3v6AUt6tl/gf9Zm/QH+/dCyjAXYhu0J8Af0lUIfLp7wxTNL7dIl8Ge7bN7zQ2Io5dloDar4XR/4/TY79Zvr6fzbdtA9T7+IvqNH44ee7Rfwn7VZf4A/xrpZGNcB/j3quGdBsKjjdDrmroE/dDIdnaDdu9nuodl+gf9ZmvUH+HdTv+h36tkN4A/wx6wdNFCqAYB/vY4VAxHaq0saCM32C/jP0qw/wB/XbZeu22HLCvAH9JVC37DiQrz+dKIA//7YEtclbFmkAQH+ojB9PQfwx7XRV23regH8Af4Af2igVAMAfwyIeuDA7/7qAeB/Ad2w/dLSPhHXQH+vgb7bFuAP6EMHBw2UagDgj0Gu74Mh6pdoHOAP8Me10O/+HuAP6CuFPnQC/e4EqtgX4A8NVNEJwnRfJwB/gD+u4+5fx0U2BPgD/AH+0ECpBgD+/R4IigYJnJst2wP8Af645vt9zQP8AX2l0IdOoN+dQBX7AvyhgSo6QZju6wTgD/DHddz967jIhgB/gD/AHxoo1QDAv98DQdEggXOzZXuAP8Af13y/r3mAP6CvFPrQCfS7E6hiX4A/NFBFJwjTfZ0A/AH+uI67fx0X2RDgD/AH+EMDpRoA+Pd7ICgaJHButmwP8Af445rv9zUP8Af0lUIfOoF+dwJV7Avwhwaq6ARhuq8TgD/AH9dx96/jIhsC/AH+AH9ooFQDAP9+DwRFgwTOzZbtAf4Af1zz/b7mAf6AvlLoQyfQ706gin0B/tBAFZ0gTPd1AvAH+OM67v51XGRDgD/AH+APDZRqAODf74GgaJDAudmyPcAf4I9rvt/XPMAf0FcKfegE+t0JVLEvwB8aqKIThOm+TgD+AH9cx92/jotsCPAH+AP8oYFSDQD8+z0QFA0SODdbtgf4A/xxzff7mgf4A/pKoQ+dQL87gSr2BfhDA1V0gjDd1wnAH+CP67j713GRDQH+AH+APzRQqgEB/5XbLiD8oQ2ggf5qQMB/lm18w/ZLS/vEIrDCuX6Dc9ftC/AH9KGDgwZKNQDw7y/ozTLgoe55XQP8MePfdbBF+YsdL4A/oK8U+nARFV9EaB+0DzQADfRFAwL+fakP6oFrExrIagDgD/AH+EMD0AA0AA1AA0YDAP8sJAEa0R590wDAH509BnxoABqABqABaADgDw2gH5gBDQD8Z8DIffNWUR/MwEAD0AA0MB4NYMZ/PO0KvaJd26IBgD/AHx4+NAANQAPQADRgNADwB6C2BVBRjvFoEeCPzh4DPjQADUAD0AA0APCHBtAPzIAGAP4zYGR4zePxmtGuaFdoABromwYw4w9N903TqE9W0wB/gD88fGgAGoAGoAFowGgA4J+FJEAj2qNvGgD4o7PHgA8NQAPQADQADQD8oQH0AzOgAYD/DBi5b94q6oMZGGgAGoAGxqMBzPiPp12hV7RrWzQA8Af4w8OHBqABaAAagAaMBgD+ANS2ACrKMR4tRsF/277DdPtTL9NVG/bRZQ/sxh/aABpoWANXPrKXbn7iRVq/63VAF6ALGoAGWqEBgP94YAsQi3ZtiwaC4P/A9w8B8hqGPDhPcB6LNHDT4y/Q9195qxUDf1s6J5QDAyU0MHkNAPwn3+bQOdp8khrIgf8Hzl3loP+Wnfvo4UMHaBvN4w9tAA00rIH1rx2gu3fvo+UP7zHX3L3PvALwx6wvNAANTFUDAH9A6CQhFHlNXm858P/sVRsNhNz23D6AXsOgBwcKDmRIAw++dMBcc7z0B53g5DtBtDnaHBpINQDwT9sCukBb9FEDOfD/+tofGAjZ+EPM9IcgDccA7+PQwLJ1yVKoPnYyU6vTY0QLBkSDwN/C1YEBzYZfVnfGedh4dfMZNnzby6fr1aWy6nL36DfAP9A39Mi+U+uP0YatmdjLgb+sQx4H3CBNQDM0ENaAXHfolBscdMcFkeNKt+rAWJZ/2fmq+TQVrk556oRtqnxIJwMkAP8G+yBoK6MtjG/t0BbAH8t5sKSrBRoA+I+hQxwXRI4r3aqQUJZ/2fmq+TQVrk556oRtqnxIJwNnAP8x9EXQWEZjcACmqzGAfwugD7Pg4VnwWWoXgP8YOsIyiOTzxxMtPD5ZDrTMD2/3ZamQLA9aqJYOLXqMaGdJPBOGB34bbtHidPnRgsUF9V6dhjNlOCUJm8vfg4rceV0+/q3rbOPqOEVLnRYdT6TLP7BlMgN5nfLaMvltK220TKUl7Q5YKNCKp4FR2grgP5l2HsVGiAsbjaIBgD/AHzP+LdAAwH8MHbkHlwKZDlbteQeWdl/Al2E4eM4L52BVQbSLZwHWpGnjOdjX5wLglsnfhg06Gn7covLZc658h4gY5mV/jp2S44nm/DTtPofldtRtJPWpU95MWF1e+9vZqKSNRhn8EDd8zQH8w+0CvaBd+qIBgH8LoG+WZrZR1/DdDYD/GAYVDZQhkLXn/Rl5A7UMnDEA9tPV+/q3zZMhVwN7ML9Q+bxjfjoC37nByC+D3re/i8rg8vHy53y0k8D7xlHQs/4qjktH58/nK7RtUfly9VV54tzo1xHAf/Q2hA7Rhm3WAMAf4I8Z/xZoAOA/hoHCB04fEP3zar9w5luFM5273g9ArYNlHY7L4u9HyufuVHgOxCjg7+LaMug8+LcDb69Mri5yXNc3kJZJx6vn0G0reWI71vXSAP8x9EXQ7Fg122bIbmPZegD+G+jsEwY0OOE8WjNOgNtxHh07GNDA/J1MSwvzaqpMTaUTnmXG7Ht72gXgP4bB1gPOXAfsn9f7Gmj9QVuH43N6X/+28aIz34Gwroz2nAbwaDqjlK+oDH66RTP+dco7bNsGyuPaC+caAyuA/xj6IuizMX3imh9dn82A/60nWyAWMJZtGJDXLDkuGP6kW4cBsUnAsc3jtGsqzo43Vaam0hmmXRFnko4RwH/0ziw3IJRBrX/e22fQlrXvAvd6BttBeVE8hlxZE++FkzTd7LuGAx3vENGyU5J0gvnrePzb5hMsn18GH+YD53W7mjX+agmUa6Oa5XXx/PL6+fv7fl2x3zhQAfzH0BdBp43rVPdL+F1Ps42Cvw/uS09LHIBjl2zIAHMC/sfR2TtSuBRnwE8jA1/GwcjGy5wvnIVP86of5xo6aTAgvx710ykow9TqVlCmsbUn8vS1A/Cv13FV6ujLoNE/H9mXZTDOCbCwzMfNsZJ4QQBXwBsEf5UH58MP0OplNgbAJf8AVGTO6/Lp3yoeg7jU05VXnZf2NmWwToiUS5+TNErLa8sh4V3b+uXz9wNlkvyxbeYaAvg3047QI9qxrRoYK/gz3ISAPgT+2+xSmkK4nhYcVynbqJA8rbqNWm7Ezzi1PtBX3Qf4Y5Bo6yChy6WdD30cv/ujX4B/f2yJ6xK2DGlg7OC/jfLLVeqDv03DrbG3S4nM0ptY+ifTUrUuP+NQGMiW5UgDGhQs4ZG7Fsnafp2vODWhfPJlMgAYzLde3Uw6ql5SLv9OiWlj89xDcrdCwmXaIQbtmXLyHZakjDpu0i7+Uq7InZFMevn2TvSQb8dwHvO0zaQ3jTs/47tTAfBHBx3qoNt2DODff50C/Ptv47b1KyjPZDU3AfCfJx/gQuDvhwnOlAaBLw/ZSfoM6QE4tBDqQLnKbH4kTDyffJkSWB2Qy5eSdnH7Fesm6WgIl2MuLXWnZTBI4VzKq8Pl2jnSPuw46DzD9gqAfyQ9nZaUK2cvP651VEze436YO+YUjek4wH+yHR8GmuHaG+A/XLt1SW8A//7buEt6RFmb1+NEwD8BuxTCU9BTs+48m18w857OmKfpJNCah2xJX8NlJqyXTxI+BeQcDJeAfzQfB6e2jF6+mXwqgX88HR+G/TZP8gqAeQZkI+kH6l8N/MPp+e1dz15ldRjfrHzGXpl2Gz1PBv/3LjpMJ3+Z8Ic2gAaggalpAODfPGgBXtGmbdLAFMHfA3gLl4XwXwmOZQmOlz6Dms0jN+MdTFfBXAB8GQLDcM3xLPAK+EfiZ0AyWIbq6fhl8eE6ySsM4mk5YlCdP14J/Cu2t1/2tDyBNg62k7JVw0CuyzLO3wz+MuBiS2iL09AGuA6mq4E2gQrKAnCGBprTwETA34fEGOjFjjvgCkKfB8dFQG5BVNa7Z7cBR0EgMgLu8fJ6ZYoBsKTP2yp1K0rHi5+Uzb+LUQL+kXpuo9HAP9vOcpcnbe94O6bOmtxV8e9sOG3otuzgbwb/c1fN0y3bCH9oA2gAGpi6BgBazYEW2hJt2SYNTAD887AZBT0Dr9l18Bmw8+A2OedBdgXwz834l4FiBIij9cCMf/KmmyJHRbV5vB39uyd5BySjD5Vm145jjT8GhjYNDCgL9AgNQAPQQD81MHbwT6AuC/Mx0IsddxA3KvgHZq5d2kXQOCr423xHX8aUd6Kk/P5MeNKWNWf8xWHxn0UI1D+Yfi5cNVAvs7s7v4Q/FJfeKZC692EL8O9nB4uBE3aFBqABaAAaaJMGxgr+CbBl3wbDkOZATn3AS9bfF8JxDiz9GeFkrXcwfQv2UqbMrD87FLIeP+QABPON1MPEj92FyDpADOuyhEXq7/ZrpBOqU3KsLvhLnVQ5bd39t/rkyhsJFyqbWdak2jsJUwT0iQNhlgypeH0AfqkDwB8DQ5sGBpQFeoQGoAFooJ8aaBT8c2u5I5AmMOiHz0Jv+IHNTFwzMx2D7AKQtEuKXP6RcgqU5SA340SE8smXKXV4ZI17/i1GVepmyuSXPzALnqRVH/zz5eQ0wjP3mfKa14Ym9c7Z0S+v195JOqF2TDWQPCeiHJKQg9bhYwD/fnawGDhhV2gAGoAGoIE2aaAZ8O8wcDm4Rx0KvkAbBv9Jtl0C/r4jkzoGkyzLOPIC+GNgaNPAgLJAj9AANAAN9FMDAH8AfwHwC1hPG/ztUh//2YMe2Q7g388OFgMn7AoNQAPQADTQJg0A/HsEj+OYiU7SnC74V1kKNL66i/Mz3i3AHwNDmwYGlAV6hAagAWignxoA+AP8K8z4jxd6uw7tTZQf4N/PDhYDJ+wKDUAD0AA00CYNAPwB/gD/FmgA4I+BoU0DA8oCPUID0AA00E8NAPxbAH1NzBgjjW7flQD497ODxcAJu0ID0AA0AA20SQMAf4A/ZvxboAGAPwaGNg0MKAv0CA1AA9BAPzUA8G8B9GG2vtuz9U3YD+Dfzw4WAyfsCg1AA9AANNAmDeTA/5tzzxNDyOYjBzATDKcAGpiQBpat222uuzZ1DigLBitoABqABqABaKBfGsiB/xdXP2EA5N79+wF9E4K+JmaMkUZ37xo8enjeXHNXPLSX0MH2q4OFPWFPaAAagAaggTZpIAf+n7j4bgMhV27cQ+tfw6w/gLq7QN0F2/GdtVVP7DXX3A3bDgL8D2GAaNMAgbJAj9AANAAN9EsDOfDnA9959IABEV7yI0sQZA0ytsmSDLQD2mFUDSx/eI+7zni2/6mDbwL8Af7QADQADUAD0AA0MDYNBMH/mZeP0q3bX3JQMirgID4gGRqIa2DV5nnaPn9kbBc5Zmv6NVsDe8Ke0AA0AA1AA8NqIAj+wyaGeBAiNAANQAPQADQADUAD0AA00E4NAPxxOwkzzdAANAANQAPQADQADUADM6ABgP8MGBledzu9btgFdoEGoAFoABqABqCBSWoA4A/wh4cPDUAD0AA0AA1AA9AANDADGgD4z4CRJ+lJIi/MXEAD0AA0AA1AA9AANNBODQD8Af7w8KEBaAAagAagAWgAGoAGZkADAP8ZMDK87nZ63bAL7AINQAPQADQADUADk9QAwB/gDw8fGoAGoAFoABqABqABaGAGNBAE/x0v4Quik/S+kBe8fWgAGoAGoAFoABqABqCBcWvgN85aRgz//G/woXNXmp1Hd70Kr28GvL5xiwvpowODBqABaAAagAagAWigPRrIgP8ZS28x4H/747sB/gB/aAAagAagAWgAGoAGoAFooCca2D5/2HA+T/SbGf/FV99vDnzr/qdh5J4YGV52e7xs2AK2gAagAWgAGoAGoIFpaeDhnS8azv/kkpsS8L/k5o3mwNJbtwL8Af7QADQADUAD0AA0AA1AA9BATzTAK3p4ff85l9+VgP+N67abA1+69hEYuSdGnpZXiXwxowENQAPQADQADUAD0EB7NMArehj8L7x2XQL+67+7yxz46JevB/gD/KEBaAAagAagAWgAGoAGoIGeaOCcK5Ml/dfe93gC/oePvEnv/ewKA/94s097PDR4y7AFNAANQAPQADQADUAD0MAoGvjdzySM/9y+FxPw5//PXbHWgP+ytdvh4fXEwxtFJIiLTgYagAagAWgAGoAGoIFua0DW98sbfZj5B/zfbeuT9T+fuOgWgD/AHxqABqABaAAagAagAWgAGui4Bs6/PnmBD7/IR/4Z8H/19eQdn/yC/217X4ehO25oeOjd9tBhP9gPGoAGoAFoABqABkbVwMK/XWVW9GzZsVu4P5nx5z1+zQ8/9Yu3+0BoowoN8aEhaAAagAagAWgAGoAGpqeB1Rt2Gq5//6KrHPTzDzPjzz92PD9vAmDWf3pGwgWCtocGoAFoABqABqABaAAaGEUDO156k0485yrD9fI2H6F/B/58QGb9v3D1Oiz3wXIfaAAagAagAWgAGoAGoAFooGMa+Oadjxvo//j51wvvu20G/GXWn5f83L9jHobumKFH8Q4RF7ML0AA0AA1AA9AANAANdFsDerb/gcd2OuCXHxnw54P8ZS8Gf/6gF0eGALotANgP9oMGoAFoABqABqABaGA2NPBXlyev6A/N9jPn58D/4CuvE7/vk+H/zEvuAvhj1h8agAagAWgAGoAGoAFoABpouQaW3rrV8PtvnrWM5INdMtMv2xz48wle8sORGP75HaDwEmfDS4SdYWdoABqABqABaAAagAa6pwF5iw+ze2iJTyH480mOxJH571v3Pw34b7mXh4u0excpbAabQQPQADQADUAD0MCoGuDncn/3MysMsy+/fZMwfnAbnPGXkPwKIIH/r67ZBPgH/EMD0AA0AA1AA9AANAANQAMt0QDP9Av089s5y/4Vgj9HvuruZL0QOwD8wAAe+IVnOqpnivjQEDQADUAD0AA0AA1AA6NpQF7byYzO0H/4yJtl3J9/uDcU457Nz7o1//y2n0d3vQpPryWeHi6a0S4atB/aDxqABqABaAAagAa6pAGehJe39zD0ly3v0WxfOuMvgfmBX3nbD3/dlx/63T5/GA4AHABoABqABqABaAAagAagAWhgAhpYtna7+yovv4iHJ+fr/KsM/pwov+pTvu7LHgavKeLbDF3yklBWePXQADQADUAD0AA0AA1AA13SAK/l/8AXktftM4Pze/p5Ur7uv1rgL4lv2bGbPrnkJvfgLxfkS9c+Qrc/vhtOwAS8vS4JFWVFxwoNQAPQADQADUAD0EB9DfDbevjlOgv/dpVjbl59U3eWX/idt0OBvyTAr/yU5T/sfchdgHOuvJ/WbNllHAE8D1Df0Lg40GbQADQADUAD0AA0AA3Mjga27X3dcDNPon/h6nWZ2X3m6/cvuor4bZuj/hsJ/CXzJ3fuo6U3PEIf/VLqkYgjIFt+LuDEc65yHoscxzZxmNAOaAdoABqABqABaAAagAZmRwO8ZF5exRmyO8P+hdeuK/wgl7B41W0j4K8z23PwVeORLL76fjpj6S2klwSFKoVjsyNw2Bq2hgagAWgAGoAGoAFoIK8BXrPP3MzP0vKr9IdZv695PPb7/we4KJcJUo9SyQAAAABJRU5ErkJggg==;" vertex="1" parent="WIyWlLk6GJQsqaUBKTNV-1">
          <mxGeometry x="160" y="500" width="607.94" height="250" as="geometry" />
        </mxCell>
      </root>
    </mxGraphModel>
  </diagram>
</mxfile>
